<?xml version="1.0" encoding="UTF-8"?>
<!DOCTYPE svg PUBLIC "-//W3C//DTD SVG 1.1//EN" "http://www.w3.org/Graphics/SVG/1.1/DTD/svg11.dtd">
<!-- Creator: CorelDRAW X7 -->
<svg xmlns="http://www.w3.org/2000/svg" xml:space="preserve" width="40px" height="40px" version="1.1" style="shape-rendering:geometricPrecision; text-rendering:geometricPrecision; image-rendering:optimizeQuality; fill-rule:evenodd; clip-rule:evenodd"
viewBox="0 0 985 985"
 xmlns:xlink="http://www.w3.org/1999/xlink">
 <defs>
  <style type="text/css">
   <![CDATA[
    .fil1 {fill:url(#id0)}
    .fil0 {fill:url(#id1)}
   ]]>
  </style>
  <linearGradient id="id0" gradientUnits="userSpaceOnUse" x1="447.598" y1="731.554" x2="545.687" y2="253.335">
   <stop offset="0" style="stop-opacity:1; stop-color:#009CE0"/>
   <stop offset="1" style="stop-opacity:1; stop-color:#00F2AA"/>
  </linearGradient>
  <linearGradient id="id1" gradientUnits="userSpaceOnUse" xlink:href="#id0" x1="375.679" y1="1061.91" x2="609.211" y2="-77.0176">
  </linearGradient>
 </defs>
 <g id="Camada_x0020_1">
  <metadata id="CorelCorpID_0Corel-Layer"/>
  <path class="fil0" d="M492 0c272,0 493,220 493,492 0,272 -221,493 -493,493 -272,0 -492,-221 -492,-493 0,-272 220,-492 492,-492zm0 40c250,0 453,203 453,452 0,250 -203,453 -453,453 -249,0 -452,-203 -452,-453 0,-249 203,-452 452,-452z"/>
  <polygon class="fil1" points="520,294 436,294 250,492 436,691 520,691 357,528 743,528 743,457 357,457 "/>
 </g>
</svg>
