<?xml version="1.0" encoding="utf-8"?>
<!-- Generator: Adobe Illustrator 16.0.0, SVG Export Plug-In . SVG Version: 6.00 Build 0)  -->
<!DOCTYPE svg PUBLIC "-//W3C//DTD SVG 1.1//EN" "http://www.w3.org/Graphics/SVG/1.1/DTD/svg11.dtd">
<svg version="1.1" id="Layer_1" xmlns="http://www.w3.org/2000/svg" xmlns:xlink="http://www.w3.org/1999/xlink" x="0px" y="0px"
	 width="132.865px" height="132.865px" viewBox="0 0 132.865 132.865" enable-background="new 0 0 132.865 132.865"
	 xml:space="preserve">
<g>
	<linearGradient id="SVGID_1_" gradientUnits="userSpaceOnUse" x1="3.5146" y1="129.3506" x2="129.3506" y2="3.5146">
		<stop  offset="0" style="stop-color:#009CE0"/>
		<stop  offset="1" style="stop-color:#00F2AA"/>
	</linearGradient>
	<path fill="url(#SVGID_1_)" d="M132.865,120.865c0,6.627-5.372,12-12,12H12c-6.628,0-12-5.373-12-12V12C0,5.371,5.372,0,12,0
		h108.865c6.628,0,12,5.371,12,12V120.865z"/>
	<g>
		<path fill="none" stroke="#F4F2F1" stroke-width="3" stroke-linecap="round" stroke-linejoin="round" stroke-miterlimit="10" d="
			M92.854,77.059V48.191c0-1.139-0.516-2.217-1.406-2.928L67.317,25.961c-1.37-1.098-3.316-1.098-4.685,0L38.502,45.264
			c-0.891,0.711-1.408,1.789-1.408,2.928v55.787c0,2.07,1.679,3.748,3.75,3.748h26.92"/>
		
			<circle fill="none" stroke="#F4F2F1" stroke-width="3" stroke-linecap="round" stroke-linejoin="round" stroke-miterlimit="10" cx="64.974" cy="49.246" r="8.364"/>
		
			<line fill="none" stroke="#F4F2F1" stroke-width="3" stroke-linecap="round" stroke-linejoin="round" stroke-miterlimit="10" x1="68.677" y1="90.889" x2="95.771" y2="90.889"/>
		
			<line fill="none" stroke="#F4F2F1" stroke-width="3" stroke-linecap="round" stroke-linejoin="round" stroke-miterlimit="10" x1="80.867" y1="105.789" x2="80.867" y2="77.338"/>
	</g>
</g>
</svg>
