<?xml version="1.0" encoding="utf-8"?>
<!-- Generator: Adobe Illustrator 16.0.0, SVG Export Plug-In . SVG Version: 6.00 Build 0)  -->
<!DOCTYPE svg PUBLIC "-//W3C//DTD SVG 1.1//EN" "http://www.w3.org/Graphics/SVG/1.1/DTD/svg11.dtd">
<svg version="1.1" id="Layer_1" xmlns="http://www.w3.org/2000/svg" xmlns:xlink="http://www.w3.org/1999/xlink" x="0px" y="0px"
	 width="132.865px" height="132.865px" viewBox="0 0 132.865 132.865" enable-background="new 0 0 132.865 132.865"
	 xml:space="preserve">
<g>
	<linearGradient id="SVGID_1_" gradientUnits="userSpaceOnUse" x1="3.5146" y1="129.3516" x2="129.3505" y2="3.5157">
		<stop  offset="0" style="stop-color:#009CE0"/>
		<stop  offset="1" style="stop-color:#00F2AA"/>
	</linearGradient>
	<path fill="url(#SVGID_1_)" d="M132.865,120.865c0,6.627-5.372,12-12,12H12c-6.628,0-12-5.373-12-12V12C0,5.371,5.372,0,12,0
		h108.865c6.628,0,12,5.371,12,12V120.865z"/>
	<g>
		<path fill="#F4F2F1" d="M44.84,40.053c2.57,0,4.662-2.093,4.662-4.664s-2.092-4.663-4.662-4.663s-4.662,2.092-4.662,4.663
			S42.27,40.053,44.84,40.053z M44.84,33.726c0.916,0,1.662,0.746,1.662,1.663c0,0.918-0.746,1.664-1.662,1.664
			s-1.662-0.746-1.662-1.664C43.178,34.472,43.924,33.726,44.84,33.726z"/>
		<path fill="#F4F2F1" d="M44.84,59.748c2.57,0,4.662-2.092,4.662-4.662c0-2.571-2.092-4.663-4.662-4.663s-4.662,2.092-4.662,4.663
			C40.178,57.656,42.27,59.748,44.84,59.748z M44.84,53.423c0.916,0,1.662,0.746,1.662,1.663c0,0.916-0.746,1.662-1.662,1.662
			s-1.662-0.746-1.662-1.662C43.178,54.169,43.924,53.423,44.84,53.423z"/>
		<path fill="#F4F2F1" d="M45.467,70.119c-2.57,0-4.662,2.092-4.662,4.662c0,2.572,2.092,4.665,4.662,4.665
			c2.571,0,4.664-2.093,4.664-4.665C50.131,72.211,48.038,70.119,45.467,70.119z M45.467,76.446c-0.916,0-1.662-0.747-1.662-1.665
			c0-0.916,0.746-1.662,1.662-1.662c0.918,0,1.664,0.746,1.664,1.662C47.131,75.699,46.385,76.446,45.467,76.446z"/>
		<path fill="#F4F2F1" d="M45.467,89.816c-2.57,0-4.662,2.093-4.662,4.664s2.092,4.663,4.662,4.663c2.571,0,4.664-2.092,4.664-4.663
			S48.038,89.816,45.467,89.816z M45.467,96.144c-0.916,0-1.662-0.746-1.662-1.663c0-0.918,0.746-1.664,1.662-1.664
			c0.918,0,1.664,0.746,1.664,1.664C47.131,95.397,46.385,96.144,45.467,96.144z"/>
		<path fill="#F4F2F1" d="M62.393,102.112H36.168c-0.838,0-1.688-0.589-1.688-1.013V89.215h26.486c0.16-1.023,0.388-2.023,0.671-3
			H34.479V67.363h59.006v2.492c1.034,0.366,2.034,0.801,3,1.296v-5.278c0,0,0.001-0.006,0.001-0.01c0,0-0.001-0.006-0.001-0.01
			V30.781c0-2.297-1.868-4.166-4.164-4.166H36.168c-2.265,0-4.688,1.595-4.688,3.969V101.1c0,2.4,2.424,4.013,4.688,4.013h27.654
			C63.28,104.15,62.803,103.148,62.393,102.112z M34.479,30.584c0-0.414,0.835-0.969,1.688-0.969h56.153
			c0.642,0,1.164,0.523,1.164,1.166v11.678H34.479V30.584z M34.479,45.459h59.006v18.904H34.479V45.459z"/>
		
			<line fill="none" stroke="#F4F2F1" stroke-width="3" stroke-linecap="round" stroke-linejoin="round" stroke-miterlimit="10" x1="98.609" y1="106.252" x2="88.618" y2="96.263"/>
		<path fill="none" stroke="#F4F2F1" stroke-width="3" stroke-linecap="round" stroke-linejoin="round" stroke-miterlimit="10" d="
			M90.283,87.936c0.001,5.516-4.486,9.991-10.021,9.991c-5.533-0.003-9.961-4.474-9.961-9.991c-0.001-5.517,4.431-9.994,9.961-9.989
			C85.801,77.943,90.287,82.418,90.283,87.936z"/>
	</g>
</g>
</svg>
