<?xml version="1.0" encoding="utf-8"?>
<!-- Generator: Adobe Illustrator 16.0.0, SVG Export Plug-In . SVG Version: 6.00 Build 0)  -->
<!DOCTYPE svg PUBLIC "-//W3C//DTD SVG 1.1//EN" "http://www.w3.org/Graphics/SVG/1.1/DTD/svg11.dtd">
<svg version="1.1" id="Layer_1" xmlns="http://www.w3.org/2000/svg" xmlns:xlink="http://www.w3.org/1999/xlink" x="0px" y="0px"
	 width="132.865px" height="132.865px" viewBox="0 0 132.865 132.865" enable-background="new 0 0 132.865 132.865"
	 xml:space="preserve">
<linearGradient id="SVGID_1_" gradientUnits="userSpaceOnUse" x1="3.5156" y1="129.3516" x2="129.352" y2="3.5152">
	<stop  offset="0" style="stop-color:#009CE0"/>
	<stop  offset="1" style="stop-color:#00F2AA"/>
</linearGradient>
<path fill="url(#SVGID_1_)" d="M132.865,120.865c0,6.627-5.372,12-12,12H12c-6.628,0-12-5.373-12-12V12C0,5.371,5.372,0,12,0
	h108.865c6.628,0,12,5.371,12,12V120.865z"/>
<g>
	<path fill="none" stroke="#F4F2F1" stroke-width="3" stroke-linecap="round" stroke-linejoin="round" stroke-miterlimit="10" d="
		M33.156,81.438l6.893-49.881c0.287-1.912,1.934-3.332,3.873-3.332h45.018c1.945,0,3.59,1.42,3.877,3.332l6.893,49.881"/>
	<path fill="none" stroke="#F4F2F1" stroke-width="3" stroke-linecap="round" stroke-linejoin="round" stroke-miterlimit="10" d="
		M49.406,77.52c1.813,0,3.404,1.246,3.801,3.008c1.371,6.043,6.771,10.555,13.227,10.555c6.453,0,11.855-4.512,13.221-10.555
		c0.4-1.762,1.994-3.008,3.801-3.008h12.34c2.162,0,3.914,1.758,3.914,3.918v19.287c0,2.164-1.752,3.914-3.914,3.914H37.072
		c-2.16,0-3.916-1.75-3.916-3.914V81.438c0-2.16,1.756-3.918,3.916-3.918H49.406z"/>
	
		<line fill="none" stroke="#F4F2F1" stroke-width="3" stroke-linecap="round" stroke-linejoin="round" stroke-miterlimit="10" x1="41.781" y1="65.199" x2="91.084" y2="65.199"/>
	
		<line fill="none" stroke="#F4F2F1" stroke-width="3" stroke-linecap="round" stroke-linejoin="round" stroke-miterlimit="10" x1="44.246" y1="52.871" x2="88.619" y2="52.871"/>
	
		<line fill="none" stroke="#F4F2F1" stroke-width="3" stroke-linecap="round" stroke-linejoin="round" stroke-miterlimit="10" x1="46.711" y1="40.553" x2="86.154" y2="40.553"/>
</g>
</svg>
