<?xml version="1.0" encoding="utf-8"?>
<!-- Generator: Adobe Illustrator 16.0.0, SVG Export Plug-In . SVG Version: 6.00 Build 0)  -->
<!DOCTYPE svg PUBLIC "-//W3C//DTD SVG 1.1//EN" "http://www.w3.org/Graphics/SVG/1.1/DTD/svg11.dtd">
<svg version="1.1" id="Layer_1" xmlns="http://www.w3.org/2000/svg" xmlns:xlink="http://www.w3.org/1999/xlink" x="0px" y="0px"
	 width="16.144px" height="18.387px" viewBox="0 0 16.144 18.387" enable-background="new 0 0 16.144 18.387" xml:space="preserve">
<g>
	<path fill="#009CE0" d="M16.138,12.552c0-0.005,0.002-0.009,0.001-0.013l-0.008-0.055c-0.006-0.064-0.012-0.129-0.026-0.19
		l-1.535-11.11C14.467,0.498,13.889,0,13.194,0H2.95C2.256,0,1.678,0.498,1.574,1.189L0.039,12.294
		c-0.015,0.062-0.021,0.126-0.026,0.19l-0.008,0.055c-0.001,0.004,0.001,0.008,0.001,0.013C0.005,12.57,0,12.588,0,12.607v4.389
		c0,0.767,0.624,1.391,1.392,1.391h13.361c0.767,0,1.391-0.624,1.391-1.391v-4.389C16.144,12.588,16.139,12.57,16.138,12.552z
		 M2.563,1.332C2.593,1.14,2.755,1,2.95,1h10.244c0.195,0,0.357,0.14,0.386,0.326l1.369,9.91c-0.064-0.009-0.129-0.02-0.196-0.02
		h-2.807c-0.643,0-1.212,0.451-1.353,1.073c-0.264,1.166-1.324,2.013-2.521,2.013c-1.196,0-2.257-0.847-2.521-2.013
		c-0.141-0.622-0.71-1.073-1.353-1.073H1.392c-0.067,0-0.133,0.011-0.197,0.02L2.563,1.332z M14.753,17.387H1.392
		C1.176,17.387,1,17.212,1,16.996v-4.355l0.015-0.104c0.034-0.182,0.187-0.32,0.377-0.32h2.807c0.18,0,0.339,0.124,0.378,0.294
		c0.372,1.644,1.81,2.792,3.496,2.792c1.688,0,3.125-1.148,3.496-2.792c0.039-0.17,0.198-0.294,0.378-0.294h2.807
		c0.19,0,0.342,0.139,0.376,0.318l0.015,0.105v4.355C15.144,17.212,14.969,17.387,14.753,17.387z"/>
	<path fill="#009CE0" d="M2.464,9.412h11.217c0.276,0,0.5-0.224,0.5-0.5s-0.224-0.5-0.5-0.5H2.464c-0.276,0-0.5,0.224-0.5,0.5
		S2.188,9.412,2.464,9.412z"/>
	<path fill="#009CE0" d="M3.024,6.609H13.12c0.276,0,0.5-0.224,0.5-0.5s-0.224-0.5-0.5-0.5H3.024c-0.276,0-0.5,0.224-0.5,0.5
		S2.748,6.609,3.024,6.609z"/>
	<path fill="#009CE0" d="M3.585,3.805h8.975c0.276,0,0.5-0.224,0.5-0.5s-0.224-0.5-0.5-0.5H3.585c-0.276,0-0.5,0.224-0.5,0.5
		S3.309,3.805,3.585,3.805z"/>
</g>
</svg>
