<?xml version="1.0" encoding="utf-8"?>
<!-- Generator: Adobe Illustrator 16.0.0, SVG Export Plug-In . SVG Version: 6.00 Build 0)  -->
<!DOCTYPE svg PUBLIC "-//W3C//DTD SVG 1.1//EN" "http://www.w3.org/Graphics/SVG/1.1/DTD/svg11.dtd">
<svg version="1.1" id="Layer_1" xmlns="http://www.w3.org/2000/svg" xmlns:xlink="http://www.w3.org/1999/xlink" x="0px" y="0px"
	 width="19.15px" height="19.15px" viewBox="0 0 19.15 19.15" enable-background="new 0 0 19.15 19.15" xml:space="preserve">
<g>
	<path fill="#009CE0" d="M16.345,2.805C14.537,0.996,12.133,0,9.575,0S4.613,0.996,2.805,2.805S0,7.018,0,9.575
		s0.996,4.962,2.805,6.77c1.809,1.809,4.213,2.806,6.771,2.806s4.962-0.997,6.77-2.806c1.809-1.808,2.806-4.212,2.806-6.77
		S18.153,4.613,16.345,2.805z M15.638,15.638c-1.619,1.62-3.772,2.513-6.063,2.513s-4.443-0.893-6.063-2.513
		C1.893,14.019,1,11.865,1,9.575c0-2.291,0.893-4.444,2.512-6.063S7.284,1,9.575,1c2.29,0,4.443,0.893,6.063,2.512
		c1.62,1.62,2.513,3.773,2.513,6.063S17.258,14.019,15.638,15.638z"/>
	<path fill="#009CE0" d="M11.848,7.059c-0.195-0.195-0.512-0.195-0.707,0L9.217,8.981L7.294,7.059c-0.195-0.195-0.512-0.195-0.707,0
		s-0.195,0.512,0,0.707L8.51,9.688l-1.923,1.924c-0.195,0.195-0.195,0.512,0,0.707c0.098,0.098,0.226,0.146,0.354,0.146
		s0.256-0.049,0.354-0.146l1.923-1.924l1.924,1.924c0.098,0.098,0.226,0.146,0.354,0.146s0.256-0.049,0.354-0.146
		c0.195-0.195,0.195-0.512,0-0.707L9.924,9.688l1.924-1.923C12.043,7.57,12.043,7.254,11.848,7.059z"/>
</g>
</svg>
