<?xml version="1.0" encoding="utf-8"?>
<!-- Generator: Adobe Illustrator 16.0.0, SVG Export Plug-In . SVG Version: 6.00 Build 0)  -->
<!DOCTYPE svg PUBLIC "-//W3C//DTD SVG 1.1//EN" "http://www.w3.org/Graphics/SVG/1.1/DTD/svg11.dtd">
<svg version="1.1" id="Layer_1" xmlns="http://www.w3.org/2000/svg" xmlns:xlink="http://www.w3.org/1999/xlink" x="0px" y="0px"
	 width="18.219px" height="20.771px" viewBox="0 0 18.219 20.771" enable-background="new 0 0 18.219 20.771" xml:space="preserve">
<g>
	<path fill="#009CE0" d="M4.019,1.046c-0.658,0-1.192,0.537-1.192,1.196c0,0.657,0.534,1.192,1.192,1.192s1.194-0.535,1.194-1.192
		C5.213,1.583,4.677,1.046,4.019,1.046z M4.019,2.667c-0.234,0-0.425-0.19-0.425-0.425c0-0.235,0.19-0.427,0.425-0.427
		c0.235,0,0.426,0.191,0.426,0.427C4.444,2.477,4.254,2.667,4.019,2.667z"/>
	<path fill="#009CE0" d="M4.019,6.093c-0.658,0-1.192,0.533-1.192,1.192S3.36,8.479,4.019,8.479s1.194-0.535,1.194-1.194
		S4.677,6.093,4.019,6.093z M4.019,7.711c-0.234,0-0.425-0.19-0.425-0.426s0.19-0.427,0.425-0.427c0.235,0,0.426,0.191,0.426,0.427
		S4.254,7.711,4.019,7.711z"/>
	<path fill="#009CE0" d="M2.986,12.328c0,0.661,0.535,1.194,1.194,1.194c0.658,0,1.193-0.533,1.193-1.194
		c0-0.657-0.535-1.193-1.193-1.193C3.521,11.135,2.986,11.671,2.986,12.328z M4.606,12.328c0,0.237-0.19,0.428-0.426,0.428
		s-0.426-0.19-0.426-0.428c0-0.233,0.19-0.424,0.426-0.424S4.606,12.095,4.606,12.328z"/>
	<path fill="#009CE0" d="M2.986,17.374c0,0.658,0.535,1.195,1.194,1.195c0.658,0,1.193-0.537,1.193-1.195s-0.535-1.193-1.193-1.193
		C3.521,16.181,2.986,16.716,2.986,17.374z M4.606,17.374c0,0.234-0.19,0.426-0.426,0.426s-0.426-0.191-0.426-0.426
		c0-0.236,0.19-0.426,0.426-0.426S4.606,17.138,4.606,17.374z"/>
	<path fill="#009CE0" d="M1.799,19.328c-0.215,0-0.434-0.151-0.434-0.259v-3.043h6.783c0.042-0.263,0.1-0.519,0.173-0.769H1.365
		v-4.829h15.111v0.641c0.266,0.092,0.522,0.203,0.77,0.331v-1.353v-0.002c0,0,0-0.002,0-0.004v-8.98
		c0-0.588-0.479-1.067-1.066-1.067H1.799c-0.58,0-1.201,0.409-1.201,1.018v18.058c0,0.614,0.621,1.027,1.201,1.027h7.082
		c-0.14-0.246-0.262-0.502-0.367-0.769H1.799z M1.365,1.012c0-0.105,0.215-0.25,0.434-0.25H16.18c0.163,0,0.297,0.136,0.297,0.3
		v2.99H1.365V1.012z M1.365,4.82h15.111v4.841H1.365V4.82z"/>
	<path fill="#009CE0" d="M18.143,20.036l-2.56-2.56c-0.002-0.002-0.004-0.002-0.006-0.004c0.361-0.501,0.579-1.11,0.579-1.773
		c0.001-0.814-0.315-1.581-0.892-2.158c-0.58-0.581-1.353-0.9-2.179-0.9c-1.68,0-3.046,1.372-3.046,3.058
		c0,1.685,1.368,3.057,3.049,3.059c0.001,0,0.001,0,0.001,0c0.666,0,1.278-0.219,1.782-0.58c0.001,0.002,0.002,0.005,0.004,0.007
		l2.56,2.56c0.098,0.098,0.226,0.146,0.354,0.146s0.256-0.049,0.354-0.146C18.338,20.548,18.338,20.231,18.143,20.036z
		 M13.091,17.757c-1.131-0.002-2.051-0.925-2.051-2.059c0-1.135,0.918-2.058,2.05-2.058c0.555,0,1.076,0.216,1.467,0.606
		c0.388,0.389,0.601,0.903,0.6,1.451C15.156,16.833,14.229,17.757,13.091,17.757z"/>
</g>
</svg>
