<?xml version="1.0" encoding="utf-8"?>
<!-- Generator: Adobe Illustrator 16.0.0, SVG Export Plug-In . SVG Version: 6.00 Build 0)  -->
<!DOCTYPE svg PUBLIC "-//W3C//DTD SVG 1.1//EN" "http://www.w3.org/Graphics/SVG/1.1/DTD/svg11.dtd">
<svg version="1.1" id="Layer_1" xmlns="http://www.w3.org/2000/svg" xmlns:xlink="http://www.w3.org/1999/xlink" x="0px" y="0px"
	 width="18.895px" height="18.771px" viewBox="0 0 18.895 18.771" enable-background="new 0 0 18.895 18.771" xml:space="preserve">
<path fill="#009CE0" d="M18.647,8.572c-0.094-0.094-0.221-0.146-0.354-0.146H6.211c-0.239-1.529-1.502-2.703-3.03-2.703
	c-1.698,0-3.08,1.444-3.08,3.221c0,1.777,1.382,3.223,3.08,3.223c1.54,0,2.809-1.192,3.033-2.74h8.631v1.793
	c0,0.276,0.224,0.5,0.5,0.5s0.5-0.224,0.5-0.5V9.426h1.948l-0.005,2.692c-0.001,0.276,0.223,0.5,0.499,0.501h0.001
	c0.275,0,0.499-0.224,0.5-0.499l0.006-3.193C18.794,8.794,18.741,8.667,18.647,8.572z M3.181,11.166c-1.146,0-2.08-0.997-2.08-2.223
	c0-1.225,0.934-2.221,2.08-2.221s2.08,0.996,2.08,2.221C5.261,10.169,4.327,11.166,3.181,11.166z"/>
</svg>
