<?xml version="1.0" encoding="utf-8"?>
<!-- Generator: Adobe Illustrator 16.0.0, SVG Export Plug-In . SVG Version: 6.00 Build 0)  -->
<!DOCTYPE svg PUBLIC "-//W3C//DTD SVG 1.1//EN" "http://www.w3.org/Graphics/SVG/1.1/DTD/svg11.dtd">
<svg version="1.1" id="Layer_1" xmlns="http://www.w3.org/2000/svg" xmlns:xlink="http://www.w3.org/1999/xlink" x="0px" y="0px"
	 width="18.895px" height="18.771px" viewBox="0 0 18.895 18.771" enable-background="new 0 0 18.895 18.771" xml:space="preserve">
<g>
	<path fill="#009CE0" d="M8.197,2.207l-1.18-1.181C6.202,0.211,4.655,0.42,3.645,1.431L1.52,3.556
		C1.053,4.021,0.736,4.601,0.628,5.185C0.501,5.868,0.674,6.487,1.115,6.929L2.296,8.11c0.136,0.135,0.318,0.209,0.515,0.209
		c0.409,0,0.766-0.313,0.9-0.447l4.25-4.25C8.454,3.129,8.549,2.561,8.197,2.207z M7.254,2.915l-4.25,4.25
		C2.958,7.211,2.912,7.247,2.873,7.273L1.822,6.222C1.564,5.964,1.565,5.615,1.611,5.367c0.07-0.382,0.295-0.784,0.615-1.104
		l2.125-2.125c0.394-0.394,0.911-0.639,1.35-0.639c0.249,0,0.454,0.079,0.609,0.234l1.051,1.052C7.335,2.824,7.299,2.87,7.254,2.915
		z"/>
	<path fill="#009CE0" d="M13.98,12.976c0.128,0,0.256-0.049,0.354-0.146c0.195-0.195,0.195-0.512,0-0.707L7.725,5.513
		c-0.195-0.195-0.512-0.195-0.707,0s-0.195,0.512,0,0.707l6.609,6.609C13.725,12.927,13.853,12.976,13.98,12.976z"/>
	<path fill="#009CE0" d="M5.602,6.929c-0.195,0.195-0.195,0.512,0,0.707l6.609,6.61c0.098,0.098,0.226,0.146,0.354,0.146
		s0.256-0.049,0.354-0.146c0.195-0.195,0.195-0.512,0-0.707l-6.609-6.61C6.113,6.733,5.797,6.733,5.602,6.929z"/>
	<path fill="#009CE0" d="M18.158,15.85c-0.001-0.004-0.002-0.008-0.003-0.013l-0.007-0.017c-0.01-0.027-0.021-0.055-0.032-0.083
		l-1.652-4.258c-0.024-0.065-0.063-0.124-0.112-0.173L9.141,4.096C8.945,3.9,8.629,3.9,8.434,4.096s-0.195,0.512,0,0.707
		l7.137,7.137l1.423,3.653c0.004,0.075,0.019,0.149,0.057,0.219c0.068,0.126,0.117,0.235,0.156,0.337
		c0.055,0.246,0.093,0.539,0.094,0.581c-0.055,0.128-0.351,0.394-0.504,0.482c-0.19,0.028-0.454-0.017-0.877-0.223
		c-0.078-0.038-0.16-0.046-0.242-0.042l-3.487-1.307L4.893,8.346c-0.195-0.195-0.512-0.195-0.707,0s-0.195,0.512,0,0.707
		l7.373,7.372c0.051,0.051,0.111,0.09,0.178,0.114l4.417,1.646c0.229,0.042,0.419,0.063,0.565,0.063
		c0.078,0,0.144-0.006,0.197-0.018c0.019-0.004,0.042-0.02,0.062-0.025c0.292-0.048,0.591-0.179,0.864-0.452
		C18.195,17.398,18.497,16.793,18.158,15.85z"/>
</g>
</svg>
