<?xml version="1.0" encoding="utf-8"?>
<!-- Generator: Adobe Illustrator 16.0.0, SVG Export Plug-In . SVG Version: 6.00 Build 0)  -->
<!DOCTYPE svg PUBLIC "-//W3C//DTD SVG 1.1//EN" "http://www.w3.org/Graphics/SVG/1.1/DTD/svg11.dtd">
<svg version="1.1" id="Layer_1" xmlns="http://www.w3.org/2000/svg" xmlns:xlink="http://www.w3.org/1999/xlink" x="0px" y="0px"
	 width="38px" height="19px" viewBox="0 0 38 19" enable-background="new 0 0 38 19" xml:space="preserve">
<g>
	<g>
		<path fill="#009CE0" d="M28.5,0C23.262,0,19,4.262,19,9.5s4.262,9.5,9.5,9.5S38,14.738,38,9.5S33.738,0,28.5,0z M28.5,18.18
			c-4.786,0-8.68-3.894-8.68-8.68s3.894-8.68,8.68-8.68s8.68,3.894,8.68,8.68S33.286,18.18,28.5,18.18z"/>
		<path fill="#009CE0" d="M31.438,5.954c-0.14-1.784-1.224-2.728-3.135-2.728c-1.15,0-2.897,1.07-2.955,2.549
			c-0.042,1.089-0.021,2.494-0.007,3.424l0.004,0.282c-0.365,0.577-0.584,1.255-0.584,1.987c0,2.062,1.677,3.738,3.738,3.738
			s3.738-1.677,3.738-3.738c0-0.855-0.3-1.634-0.783-2.265C31.453,8.63,31.451,6.09,31.438,5.954z M26.166,5.808
			c0.039-0.956,1.34-1.761,2.138-1.761c1.497,0,2.211,0.608,2.317,1.966c0.006,0.118,0.011,1.447,0.013,2.394
			c-0.606-0.424-1.34-0.677-2.134-0.677c-0.894,0-1.703,0.328-2.347,0.854C26.142,7.719,26.134,6.664,26.166,5.808z M28.5,14.387
			c-1.609,0-2.919-1.309-2.919-2.918S26.891,8.55,28.5,8.55s2.919,1.31,2.919,2.919S30.109,14.387,28.5,14.387z"/>
		<rect x="28.09" y="10.687" fill="#009CE0" width="0.82" height="2.153"/>
	</g>
	<g>
		<path fill="#818383" d="M9.5,0C4.262,0,0,4.262,0,9.5S4.262,19,9.5,19S19,14.738,19,9.5S14.738,0,9.5,0z M9.5,18.18
			c-4.786,0-8.68-3.894-8.68-8.68S4.714,0.82,9.5,0.82s8.68,3.894,8.68,8.68S14.286,18.18,9.5,18.18z"/>
		<path fill="#818383" d="M12.438,5.954c-0.14-1.784-1.224-2.728-3.135-2.728c-1.15,0-2.897,1.07-2.955,2.549
			C6.307,6.864,6.327,8.27,6.342,9.199l0.004,0.282c-0.365,0.577-0.584,1.255-0.584,1.987c0,2.062,1.677,3.738,3.738,3.738
			s3.738-1.677,3.738-3.738c0-0.855-0.3-1.634-0.783-2.265C12.453,8.63,12.451,6.09,12.438,5.954z M7.166,5.808
			c0.039-0.956,1.34-1.761,2.138-1.761c1.497,0,2.211,0.608,2.317,1.966c0.006,0.118,0.011,1.447,0.013,2.394
			c-0.606-0.424-1.34-0.677-2.134-0.677c-0.894,0-1.703,0.328-2.347,0.854C7.142,7.719,7.134,6.664,7.166,5.808z M9.5,14.387
			c-1.609,0-2.919-1.309-2.919-2.918S7.891,8.55,9.5,8.55s2.919,1.31,2.919,2.919S11.109,14.387,9.5,14.387z"/>
		<rect x="9.09" y="10.687" fill="#818383" width="0.82" height="2.153"/>
	</g>
</g>
<path fill="none" stroke="#818383" stroke-miterlimit="10" d="M32.963,13.445"/>
</svg>
