<?xml version="1.0" encoding="utf-8"?>
<!-- Generator: Adobe Illustrator 16.0.0, SVG Export Plug-In . SVG Version: 6.00 Build 0)  -->
<!DOCTYPE svg PUBLIC "-//W3C//DTD SVG 1.1//EN" "http://www.w3.org/Graphics/SVG/1.1/DTD/svg11.dtd">
<svg version="1.1" id="Layer_1" xmlns="http://www.w3.org/2000/svg" xmlns:xlink="http://www.w3.org/1999/xlink" x="0px" y="0px"
	 width="64.84px" height="64.84px" viewBox="0 0 64.84 64.84" enable-background="new 0 0 64.84 64.84" xml:space="preserve">
<linearGradient id="SVGID_1_" gradientUnits="userSpaceOnUse" x1="1.7148" y1="63.125" x2="63.1242" y2="1.7156">
	<stop  offset="0" style="stop-color:#009CE0"/>
	<stop  offset="1" style="stop-color:#00F2AA"/>
</linearGradient>
<path fill="url(#SVGID_1_)" d="M64.84,58.983c0,3.233-2.622,5.856-5.856,5.856H5.855C2.621,64.84,0,62.217,0,58.983V5.856
	C0,2.621,2.621,0,5.855,0h53.128c3.234,0,5.856,2.621,5.856,5.856V58.983z"/>
<g>
	<path fill="#F3F1F1" d="M35.641,50.632H20.902c-2.542,0-4.609-2.069-4.609-4.612v-7.102c0-2.597,2.837-4.61,5.277-4.61
		c0.178,0,0.335-0.071,0.463-0.175c1.765,1.37,3.914,2.184,6.238,2.184c0.698,0,1.379-0.081,2.041-0.221
		c0.037-0.544,0.104-1.078,0.215-1.599c-0.725,0.201-1.477,0.319-2.256,0.319c-5.13,0-9.303-4.622-9.303-10.303
		c0-5.683,4.173-10.306,9.303-10.306c5.127,0,9.299,4.623,9.299,10.306c0,0.6-0.057,1.183-0.145,1.754
		c0.51-0.207,1.039-0.373,1.583-0.506c0.04-0.41,0.062-0.826,0.062-1.248c0-6.51-4.845-11.806-10.799-11.806
		c-5.957,0-10.803,5.296-10.803,11.806c0,3.269,1.224,6.229,3.194,8.369c-2.932,0.43-5.87,2.866-5.87,6.035v7.102
		c0,3.37,2.74,6.112,6.109,6.112h14.738c2.544,0,4.727-1.563,5.645-3.78c-0.543-0.021-1.076-0.077-1.598-0.172
		C38.91,49.631,37.398,50.632,35.641,50.632z"/>
	<path fill="#F3F1F1" d="M52.398,46.715l-5.608-5.607c-0.074-0.074-0.161-0.129-0.253-0.166c0.879-1.089,1.408-2.471,1.408-3.975
		c0.001-1.698-0.662-3.295-1.866-4.496c-1.204-1.2-2.805-1.861-4.512-1.861c-3.493,0-6.336,2.852-6.336,6.357
		c0,3.501,2.844,6.352,6.339,6.356h0.001c1.511,0,2.898-0.529,3.992-1.409c0.037,0.093,0.092,0.18,0.166,0.254l5.608,5.607
		c0.146,0.146,0.338,0.22,0.53,0.22s0.384-0.073,0.53-0.22C52.691,47.482,52.691,47.008,52.398,46.715z M41.572,41.823
		c-2.669-0.003-4.841-2.182-4.841-4.856c0-2.679,2.17-4.857,4.84-4.857c1.304,0,2.528,0.506,3.449,1.424
		c0.92,0.917,1.426,2.137,1.425,3.434C46.445,39.645,44.259,41.822,41.572,41.823z"/>
</g>
</svg>
