<?xml version="1.0" encoding="utf-8"?>
<!-- Generator: Adobe Illustrator 16.0.0, SVG Export Plug-In . SVG Version: 6.00 Build 0)  -->
<!DOCTYPE svg PUBLIC "-//W3C//DTD SVG 1.1//EN" "http://www.w3.org/Graphics/SVG/1.1/DTD/svg11.dtd">
<svg version="1.1" id="Layer_1" xmlns="http://www.w3.org/2000/svg" xmlns:xlink="http://www.w3.org/1999/xlink" x="0px" y="0px"
	 width="19.539px" height="19.942px" viewBox="0 0 19.539 19.942" enable-background="new 0 0 19.539 19.942" xml:space="preserve">
<g>
	<path fill="#FFFFFF" d="M15.309,19.942c-0.297,0-0.583-0.098-0.828-0.281l-4.501-3.377c-0.134-0.102-0.329-0.101-0.463-0.001
		l-4.503,3.378c-0.614,0.458-1.522,0.306-1.963-0.306c-0.26-0.359-0.327-0.813-0.185-1.241l1.826-5.479
		c0.052-0.154,0-0.326-0.128-0.427l-4.04-3.142C0.056,8.703-0.118,8.093,0.081,7.513c0.204-0.595,0.73-0.979,1.341-0.979h4.665
		c0.228,0,0.442-0.11,0.476-0.205l1.875-5.397C8.636,0.365,9.149,0,9.747,0c0.599,0,1.112,0.365,1.309,0.93l1.879,5.4
		c0.047,0.073,0.354,0.203,0.621,0.203h4.667c0.574,0,1.048,0.341,1.236,0.889c0.205,0.597,0.008,1.258-0.489,1.646l-4.041,3.143
		c-0.127,0.1-0.179,0.271-0.127,0.426l1.824,5.479c0.143,0.428,0.076,0.881-0.183,1.241C16.179,19.723,15.754,19.942,15.309,19.942z
		 M9.747,15.206c0.303,0,0.59,0.097,0.832,0.277l4.501,3.377c0.184,0.139,0.426,0.086,0.552-0.09c0.072-0.1,0.087-0.214,0.046-0.339
		l-1.825-5.479c-0.185-0.556,0.001-1.17,0.462-1.53l4.041-3.144c0.186-0.145,0.213-0.371,0.158-0.531
		c-0.049-0.142-0.146-0.214-0.291-0.214h-4.667c-0.488,0-1.345-0.237-1.566-0.875l-1.878-5.399C10.028,1.019,9.812,1,9.747,1
		s-0.28,0.019-0.365,0.26L7.507,6.658C7.294,7.26,6.622,7.533,6.087,7.533H1.422c-0.214,0-0.345,0.157-0.395,0.305
		c-0.023,0.065-0.081,0.291,0.111,0.44l4.04,3.143c0.462,0.361,0.647,0.976,0.463,1.531l-1.826,5.479
		c-0.052,0.155-0.004,0.271,0.046,0.34c0.128,0.174,0.37,0.229,0.553,0.09l4.502-3.377C9.157,15.303,9.444,15.206,9.747,15.206z"/>
</g>
</svg>
