<?xml version="1.0" encoding="utf-8"?>
<!-- Generator: Adobe Illustrator 16.0.0, SVG Export Plug-In . SVG Version: 6.00 Build 0)  -->
<!DOCTYPE svg PUBLIC "-//W3C//DTD SVG 1.1//EN" "http://www.w3.org/Graphics/SVG/1.1/DTD/svg11.dtd">
<svg version="1.1" id="Layer_1" xmlns="http://www.w3.org/2000/svg" xmlns:xlink="http://www.w3.org/1999/xlink" x="0px" y="0px"
	 width="16.326px" height="16.372px" viewBox="0 0 16.326 16.372" enable-background="new 0 0 16.326 16.372" xml:space="preserve">
<g>
	<path fill="#818383" d="M16.326,15.806l-5.115-5.115c2.246-2.521,2.168-6.394-0.248-8.809C9.749,0.669,8.136,0,6.42,0
		C4.705,0,3.092,0.669,1.878,1.882C0.667,3.093,0,4.705,0,6.423c0,1.717,0.667,3.33,1.878,4.542
		c1.213,1.213,2.826,1.881,4.542,1.881c1.571,0,3.053-0.565,4.223-1.591l5.117,5.117L16.326,15.806z M6.42,12.045
		c-1.502,0-2.914-0.584-3.976-1.646c-1.061-1.06-1.644-2.472-1.644-3.976s0.583-2.915,1.644-3.975
		C3.507,1.386,4.918,0.801,6.42,0.801s2.914,0.585,3.977,1.647c2.192,2.19,2.192,5.758,0,7.95
		C9.335,11.461,7.923,12.045,6.42,12.045z"/>
	<polygon fill="#818383" points="6.762,4.427 5.961,4.427 5.961,6.1 4.288,6.1 4.288,6.9 5.961,6.9 5.961,8.573 6.762,8.573 
		6.762,6.9 8.435,6.9 8.435,6.1 6.762,6.1 	"/>
</g>
</svg>
