<?xml version="1.0" encoding="utf-8"?>
<!-- Generator: Adobe Illustrator 16.0.0, SVG Export Plug-In . SVG Version: 6.00 Build 0)  -->
<!DOCTYPE svg PUBLIC "-//W3C//DTD SVG 1.1//EN" "http://www.w3.org/Graphics/SVG/1.1/DTD/svg11.dtd">
<svg version="1.1" id="Layer_1" xmlns="http://www.w3.org/2000/svg" xmlns:xlink="http://www.w3.org/1999/xlink" x="0px" y="0px"
	 width="18.219px" height="20.771px" viewBox="0 0 18.219 20.771" enable-background="new 0 0 18.219 20.771" xml:space="preserve">
<g>
	<path fill="none" stroke="#009CE0" stroke-linecap="round" stroke-linejoin="round" stroke-miterlimit="10" d="M0.5,14.268
		L2.283,1.362C2.357,0.867,2.783,0.5,3.285,0.5h11.648c0.502,0,0.928,0.367,1.002,0.862l1.783,12.905"/>
	<path fill="none" stroke="#009CE0" stroke-linecap="round" stroke-linejoin="round" stroke-miterlimit="10" d="M4.705,13.254
		c0.469,0,0.881,0.322,0.982,0.778c0.355,1.563,1.752,2.73,3.422,2.73s3.068-1.167,3.422-2.73c0.104-0.456,0.516-0.778,0.982-0.778
		h3.193c0.559,0,1.012,0.455,1.012,1.014v4.99c0,0.56-0.453,1.013-1.012,1.013H1.514c-0.559,0-1.014-0.453-1.014-1.013v-4.99
		c0-0.559,0.455-1.014,1.014-1.014H4.705z"/>
	
		<line fill="none" stroke="#009CE0" stroke-linecap="round" stroke-linejoin="round" stroke-miterlimit="10" x1="2.732" y1="10.066" x2="15.488" y2="10.066"/>
	
		<line fill="none" stroke="#009CE0" stroke-linecap="round" stroke-linejoin="round" stroke-miterlimit="10" x1="3.369" y1="6.877" x2="14.85" y2="6.877"/>
	
		<line fill="none" stroke="#009CE0" stroke-linecap="round" stroke-linejoin="round" stroke-miterlimit="10" x1="4.008" y1="3.689" x2="14.213" y2="3.689"/>
</g>
</svg>
