<?xml version="1.0" encoding="utf-8"?>
<!-- Generator: Adobe Illustrator 16.0.0, SVG Export Plug-In . SVG Version: 6.00 Build 0)  -->
<!DOCTYPE svg PUBLIC "-//W3C//DTD SVG 1.1//EN" "http://www.w3.org/Graphics/SVG/1.1/DTD/svg11.dtd">
<svg version="1.1" id="Layer_1" xmlns="http://www.w3.org/2000/svg" xmlns:xlink="http://www.w3.org/1999/xlink" x="0px" y="0px"
	 width="18.895px" height="18.771px" viewBox="0 0 18.895 18.771" enable-background="new 0 0 18.895 18.771" xml:space="preserve">
<path fill="#FFFFFF" d="M17.695,16.949l-5.048-5.048c2.215-2.561,2.114-6.446-0.315-8.876c-1.232-1.231-2.871-1.91-4.613-1.91
	c-1.741,0-3.38,0.679-4.612,1.91c-2.542,2.542-2.542,6.681,0,9.225c1.232,1.231,2.871,1.91,4.612,1.91
	c1.563,0,3.042-0.551,4.22-1.554l5.05,5.05L17.695,16.949z M7.719,13.16c-1.475,0-2.861-0.574-3.905-1.617
	c-2.152-2.154-2.152-5.658,0-7.811c1.044-1.043,2.431-1.617,3.905-1.617c1.476,0,2.862,0.574,3.906,1.617
	c2.152,2.152,2.152,5.656,0,7.811C10.581,12.586,9.194,13.16,7.719,13.16z"/>
</svg>
