<?xml version="1.0" encoding="utf-8"?>
<!-- Generator: Adobe Illustrator 16.0.0, SVG Export Plug-In . SVG Version: 6.00 Build 0)  -->
<!DOCTYPE svg PUBLIC "-//W3C//DTD SVG 1.1//EN" "http://www.w3.org/Graphics/SVG/1.1/DTD/svg11.dtd">
<svg version="1.1" id="Layer_1" xmlns="http://www.w3.org/2000/svg" xmlns:xlink="http://www.w3.org/1999/xlink" x="0px" y="0px"
	 width="37.102px" height="18.551px" viewBox="0 0 37.102 18.551" enable-background="new 0 0 37.102 18.551" xml:space="preserve">
<g>
	<path fill="#818383" d="M9.275,0C4.161,0,0,4.161,0,9.275s4.161,9.275,9.275,9.275s9.275-4.161,9.275-9.275S14.39,0,9.275,0z
		 M9.275,17.75c-4.673,0-8.475-3.802-8.475-8.475s3.802-8.475,8.475-8.475s8.475,3.802,8.475,8.475S13.948,17.75,9.275,17.75z"/>
	<path fill="#818383" d="M12.145,5.813C12.008,4.071,10.949,3.15,9.084,3.15c-1.123,0-2.829,1.045-2.886,2.488
		C6.157,6.702,6.178,8.074,6.191,8.981l0.004,0.275c-0.356,0.563-0.57,1.226-0.57,1.94c0,2.013,1.638,3.65,3.65,3.65
		s3.65-1.638,3.65-3.65c0-0.835-0.293-1.595-0.766-2.211C12.159,8.426,12.156,5.946,12.145,5.813z M6.997,5.67
		c0.037-0.933,1.308-1.719,2.087-1.719c1.461,0,2.158,0.594,2.263,1.919c0.006,0.115,0.01,1.413,0.012,2.337
		c-0.592-0.413-1.308-0.66-2.083-0.66c-0.872,0-1.663,0.32-2.291,0.833C6.973,7.536,6.965,6.507,6.997,5.67z M9.275,14.047
		c-1.571,0-2.85-1.278-2.85-2.85s1.278-2.85,2.85-2.85s2.85,1.278,2.85,2.85S10.847,14.047,9.275,14.047z"/>
	<rect x="8.875" y="10.434" fill="#818383" width="0.801" height="2.103"/>
</g>
<g>
	<path fill="#009CE0" d="M27.826,0c-5.114,0-9.275,4.161-9.275,9.275s4.161,9.275,9.275,9.275s9.275-4.161,9.275-9.275
		S32.94,0,27.826,0z M27.826,17.75c-4.673,0-8.475-3.802-8.475-8.475s3.802-8.475,8.475-8.475s8.475,3.802,8.475,8.475
		S32.499,17.75,27.826,17.75z"/>
	<path fill="#009CE0" d="M30.695,5.813C30.559,4.071,29.5,3.15,27.635,3.15c-1.123,0-2.829,1.045-2.886,2.488
		c-0.041,1.063-0.021,2.436-0.007,3.343l0.004,0.275c-0.356,0.563-0.57,1.226-0.57,1.94c0,2.013,1.638,3.65,3.65,3.65
		s3.65-1.638,3.65-3.65c0-0.835-0.293-1.595-0.766-2.211C30.71,8.426,30.707,5.946,30.695,5.813z M25.548,5.67
		c0.037-0.933,1.308-1.719,2.087-1.719c1.461,0,2.158,0.594,2.263,1.919c0.006,0.115,0.01,1.413,0.012,2.337
		c-0.592-0.413-1.308-0.66-2.083-0.66c-0.872,0-1.663,0.32-2.291,0.833C25.523,7.536,25.516,6.507,25.548,5.67z M27.826,14.047
		c-1.571,0-2.85-1.278-2.85-2.85s1.278-2.85,2.85-2.85s2.85,1.278,2.85,2.85S29.397,14.047,27.826,14.047z"/>
	<rect x="27.426" y="10.434" fill="#009CE0" width="0.801" height="2.103"/>
</g>
<path fill="#818383" d="M8.875,0.963"/>
<path fill="none" stroke="#818383" stroke-miterlimit="10" d="M31.977,15.525"/>
</svg>
