<?xml version="1.0" encoding="utf-8"?>
<!-- Generator: Adobe Illustrator 16.0.0, SVG Export Plug-In . SVG Version: 6.00 Build 0)  -->
<!DOCTYPE svg PUBLIC "-//W3C//DTD SVG 1.1//EN" "http://www.w3.org/Graphics/SVG/1.1/DTD/svg11.dtd">
<svg version="1.1" id="Layer_1" xmlns="http://www.w3.org/2000/svg" xmlns:xlink="http://www.w3.org/1999/xlink" x="0px" y="0px"
	 width="37.102px" height="18.551px" viewBox="0 0 37.102 18.551" enable-background="new 0 0 37.102 18.551" xml:space="preserve">
<g>
	<path fill="#818383" d="M9.275,7.538c-0.821,0-1.572,0.283-2.182,0.744C7.085,7.486,7.078,6.489,7.11,5.665
		c0.037-0.93,1.305-1.714,2.081-1.714c1.571,0,2.271,0.7,2.271,2.271h0.801c0-2.009-1.063-3.071-3.072-3.071
		c-1.12,0-2.823,1.043-2.88,2.483C6.275,6.562,6.287,7.703,6.296,8.536L6.3,9.093c-0.417,0.593-0.667,1.311-0.667,2.089
		c0,2.009,1.634,3.643,3.643,3.643s3.643-1.634,3.643-3.643S11.284,7.538,9.275,7.538z M9.275,14.023
		c-1.567,0-2.842-1.274-2.842-2.842s1.274-2.843,2.842-2.843s2.842,1.275,2.842,2.843S10.843,14.023,9.275,14.023z"/>
	<rect x="8.875" y="10.418" fill="#818383" width="0.801" height="2.098"/>
	<path fill="#818383" d="M9.275,0C4.161,0,0,4.161,0,9.275s4.161,9.275,9.275,9.275s9.275-4.161,9.275-9.275S14.39,0,9.275,0z
		 M9.275,17.75c-4.673,0-8.475-3.802-8.475-8.475s3.802-8.475,8.475-8.475s8.475,3.802,8.475,8.475S13.948,17.75,9.275,17.75z"/>
</g>
<g>
	<g>
		<path fill="#009CE0" d="M27.826,7.538c-0.821,0-1.572,0.283-2.182,0.744c-0.009-0.796-0.016-1.793,0.017-2.617
			c0.037-0.93,1.305-1.714,2.081-1.714c1.571,0,2.271,0.7,2.271,2.271h0.801c0-2.009-1.063-3.071-3.072-3.071
			c-1.12,0-2.823,1.043-2.88,2.483c-0.036,0.928-0.024,2.069-0.016,2.902l0.004,0.557c-0.417,0.593-0.667,1.311-0.667,2.089
			c0,2.009,1.634,3.643,3.643,3.643s3.643-1.634,3.643-3.643S29.835,7.538,27.826,7.538z M27.826,14.023
			c-1.567,0-2.842-1.274-2.842-2.842s1.274-2.843,2.842-2.843s2.842,1.275,2.842,2.843S29.394,14.023,27.826,14.023z"/>
		<rect x="27.426" y="10.418" fill="#009CE0" width="0.801" height="2.098"/>
		<path fill="#009CE0" d="M27.826,0c-5.114,0-9.275,4.161-9.275,9.275s4.161,9.275,9.275,9.275s9.275-4.161,9.275-9.275
			S32.94,0,27.826,0z M27.826,17.75c-4.673,0-8.475-3.802-8.475-8.475s3.802-8.475,8.475-8.475s8.475,3.802,8.475,8.475
			S32.499,17.75,27.826,17.75z"/>
	</g>
</g>
</svg>
