<?xml version="1.0" encoding="utf-8"?>
<!-- Generator: Adobe Illustrator 16.0.0, SVG Export Plug-In . SVG Version: 6.00 Build 0)  -->
<!DOCTYPE svg PUBLIC "-//W3C//DTD SVG 1.1//EN" "http://www.w3.org/Graphics/SVG/1.1/DTD/svg11.dtd">
<svg version="1.1" id="Layer_1" xmlns="http://www.w3.org/2000/svg" xmlns:xlink="http://www.w3.org/1999/xlink" x="0px" y="0px"
	 width="37.951px" height="19px" viewBox="0 0 37.951 19" enable-background="new 0 0 37.951 19" xml:space="preserve">
<g>
	<g>
		<path fill="#818383" d="M9.5,7.721c-0.841,0-1.61,0.29-2.234,0.762C7.257,7.667,7.25,6.646,7.282,5.802
			C7.32,4.851,8.619,4.047,9.414,4.047c1.609,0,2.326,0.717,2.326,2.325h0.82c0-2.057-1.088-3.146-3.146-3.146
			c-1.147,0-2.892,1.068-2.949,2.544C6.428,6.721,6.439,7.89,6.448,8.743l0.004,0.57C6.025,9.92,5.77,10.655,5.77,11.452
			c0,2.058,1.673,3.73,3.73,3.73s3.73-1.673,3.73-3.73C13.23,9.396,11.558,7.721,9.5,7.721z M9.5,14.363
			c-1.605,0-2.91-1.306-2.91-2.911S7.895,8.541,9.5,8.541s2.91,1.306,2.91,2.911S11.105,14.363,9.5,14.363z"/>
		<rect x="9.09" y="10.67" fill="#818383" width="0.82" height="2.148"/>
		<path fill="#818383" d="M9.5,0C4.262,0,0,4.262,0,9.5S4.262,19,9.5,19S19,14.738,19,9.5S14.738,0,9.5,0z M9.5,18.18
			c-4.786,0-8.68-3.894-8.68-8.68S4.714,0.82,9.5,0.82s8.68,3.894,8.68,8.68S14.286,18.18,9.5,18.18z"/>
	</g>
	<g>
		<path fill="#009CE0" d="M28.451,7.721c-0.841,0-1.61,0.29-2.234,0.762c-0.009-0.815-0.016-1.836,0.017-2.681
			c0.038-0.951,1.337-1.755,2.132-1.755c1.609,0,2.326,0.717,2.326,2.325h0.82c0-2.057-1.088-3.146-3.146-3.146
			c-1.147,0-2.892,1.068-2.949,2.544c-0.037,0.95-0.025,2.119-0.017,2.973l0.004,0.57c-0.427,0.606-0.683,1.342-0.683,2.139
			c0,2.058,1.673,3.73,3.73,3.73s3.73-1.673,3.73-3.73C32.182,9.396,30.509,7.721,28.451,7.721z M28.451,14.363
			c-1.605,0-2.91-1.306-2.91-2.911s1.305-2.911,2.91-2.911s2.91,1.306,2.91,2.911S30.057,14.363,28.451,14.363z"/>
		<rect x="28.041" y="10.67" fill="#009CE0" width="0.82" height="2.148"/>
		<path fill="#009CE0" d="M28.451,0c-5.238,0-9.5,4.262-9.5,9.5s4.262,9.5,9.5,9.5s9.5-4.262,9.5-9.5S33.689,0,28.451,0z
			 M28.451,18.18c-4.786,0-8.68-3.894-8.68-8.68s3.894-8.68,8.68-8.68s8.68,3.894,8.68,8.68S33.237,18.18,28.451,18.18z"/>
	</g>
</g>
</svg>
