<?xml version="1.0" encoding="utf-8"?>
<!-- Generator: Adobe Illustrator 16.0.0, SVG Export Plug-In . SVG Version: 6.00 Build 0)  -->
<!DOCTYPE svg PUBLIC "-//W3C//DTD SVG 1.1//EN" "http://www.w3.org/Graphics/SVG/1.1/DTD/svg11.dtd">
<svg version="1.1" id="Layer_1" xmlns="http://www.w3.org/2000/svg" xmlns:xlink="http://www.w3.org/1999/xlink" x="0px" y="0px"
	 width="18.396px" height="18.771px" viewBox="0 0 18.396 18.771" enable-background="new 0 0 18.396 18.771" xml:space="preserve">
<g>
	<path fill="#FFFFFF" d="M10.276,9.538c0.865-1.014,1.398-2.367,1.398-3.858C11.675,2.548,9.338,0,6.466,0
		C3.593,0,1.255,2.548,1.255,5.68c0,1.476,0.523,2.816,1.372,3.827C1.277,9.814,0,10.96,0,12.43v3.328
		c0,1.662,1.351,3.014,3.012,3.014h6.907c1.66,0,3.011-1.352,3.011-3.014V12.43C12.93,11.021,11.637,9.887,10.276,9.538z M6.466,1
		c2.321,0,4.209,2.1,4.209,4.68s-1.888,4.68-4.209,4.68c-2.322,0-4.211-2.1-4.211-4.68S4.144,1,6.466,1z M11.93,15.758
		c0,1.11-0.902,2.014-2.011,2.014H3.012C1.902,17.771,1,16.868,1,15.758V12.43c0-1.133,1.25-2.012,2.325-2.012v-0.217
		c0.874,0.724,1.961,1.158,3.141,1.158c1.109,0,2.137-0.384,2.982-1.03v0.089c1.117,0,2.481,0.929,2.481,2.012V15.758z"/>
	<rect x="13.058" y="3.766" fill="#FFFFFF" width="5.338" height="1"/>
	<rect x="12.745" y="7.221" fill="#FFFFFF" width="5.336" height="1"/>
	<rect x="14" y="10.674" fill="#FFFFFF" width="4.396" height="1"/>
	<rect x="14" y="14.127" fill="#FFFFFF" width="4.081" height="1"/>
</g>
</svg>
