<?xml version="1.0" encoding="utf-8"?>
<!-- Generator: Adobe Illustrator 16.0.0, SVG Export Plug-In . SVG Version: 6.00 Build 0)  -->
<!DOCTYPE svg PUBLIC "-//W3C//DTD SVG 1.1//EN" "http://www.w3.org/Graphics/SVG/1.1/DTD/svg11.dtd">
<svg version="1.1" id="Layer_1" xmlns="http://www.w3.org/2000/svg" xmlns:xlink="http://www.w3.org/1999/xlink" x="0px" y="0px"
	 width="18.895px" height="18.771px" viewBox="0 0 18.895 18.771" enable-background="new 0 0 18.895 18.771" xml:space="preserve">
<g>
	<path fill="#FFFFFF" d="M18.837,9.583c0.104-5.178-4.021-9.476-9.199-9.581c-2.5-0.048-4.887,0.879-6.697,2.616
		c-1.81,1.737-2.834,4.077-2.884,6.585c-0.105,5.177,4.021,9.476,9.199,9.581c0.063,0.001,0.126,0.002,0.189,0.002
		c2.943,0,5.742-1.395,7.517-3.754c0.16-0.214,0.118-0.517-0.096-0.678s-0.517-0.116-0.677,0.096
		c-1.627,2.164-4.2,3.403-6.915,3.366c-4.644-0.094-8.345-3.949-8.251-8.594c0.045-2.25,0.964-4.348,2.588-5.906
		c1.623-1.559,3.788-2.37,6.008-2.348c4.644,0.095,8.345,3.95,8.25,8.598c0,0.004,0,0.009,0,0.014l-1.546-1.609
		c-0.185-0.192-0.489-0.199-0.685-0.014c-0.192,0.186-0.198,0.491-0.013,0.684l2.189,2.281c0.095,0.098,0.223,0.148,0.349,0.148
		c0.121,0,0.241-0.045,0.336-0.136c0.071-0.068,0.108-0.155,0.128-0.246c0.09-0.079,0.149-0.189,0.163-0.318
		C18.817,10.11,18.833,9.847,18.837,9.583z"/>
	<path fill="#FFFFFF" d="M11.344,7.091c0.268,0,0.483-0.216,0.483-0.483V6.213c0-1.06-1.177-1.922-2.624-1.922
		c-1.47,0-2.621,1.018-2.621,2.316V7.65H6.454c-0.675,0-1.094,0.419-1.094,1.096v3.361c0,0.678,0.383,1.4,1.094,1.4h5.5
		c0.637,0,1.1-0.567,1.1-1.349V8.83c0-0.705-0.442-1.18-1.1-1.18H7.55V6.607c0-0.77,0.71-1.35,1.653-1.35
		c1.026,0,1.657,0.557,1.657,0.955v0.395C10.86,6.875,11.076,7.091,11.344,7.091z M12.086,8.83v3.329
		c0,0.229-0.094,0.381-0.132,0.381l-5.491,0.003c-0.046-0.027-0.136-0.206-0.136-0.436V8.746c0-0.071,0.01-0.107,0.007-0.115
		c0.016-0.005,0.051-0.014,0.12-0.014h5.5C12.033,8.617,12.086,8.617,12.086,8.83z"/>
</g>
</svg>
