<?xml version="1.0" encoding="utf-8"?>
<!-- Generator: Adobe Illustrator 16.0.0, SVG Export Plug-In . SVG Version: 6.00 Build 0)  -->
<!DOCTYPE svg PUBLIC "-//W3C//DTD SVG 1.1//EN" "http://www.w3.org/Graphics/SVG/1.1/DTD/svg11.dtd">
<svg version="1.1" id="Layer_1" xmlns="http://www.w3.org/2000/svg" xmlns:xlink="http://www.w3.org/1999/xlink" x="0px" y="0px"
	 width="18.895px" height="18.771px" viewBox="0 0 18.895 18.771" enable-background="new 0 0 18.895 18.771" xml:space="preserve">
<g>
	<path fill="#009CE0" d="M10.275,9.54c0.865-1.015,1.398-2.369,1.398-3.859C11.674,2.548,9.337,0,6.465,0
		C3.592,0,1.254,2.548,1.254,5.681c0,1.475,0.523,2.816,1.372,3.827C1.277,9.815,0,10.961,0,12.431v3.328
		c0,1.661,1.351,3.013,3.012,3.013h6.906c1.661,0,3.012-1.352,3.012-3.013v-3.328C12.93,11.021,11.637,9.888,10.275,9.54z M6.465,1
		c2.321,0,4.209,2.1,4.209,4.681c0,2.58-1.888,4.68-4.209,4.68c-2.322,0-4.211-2.1-4.211-4.68C2.254,3.1,4.143,1,6.465,1z
		 M11.93,15.759c0,1.109-0.902,2.013-2.012,2.013H3.012C1.902,17.771,1,16.868,1,15.759v-3.328c0-1.133,1.249-2.012,2.324-2.012
		c0.074,0,0.144-0.019,0.207-0.048c0.837,0.623,1.847,0.989,2.934,0.989c1.069,0,2.064-0.354,2.893-0.959
		c0.03,0.005,0.058,0.018,0.09,0.018c1.117,0,2.482,0.929,2.482,2.012V15.759z"/>
	<path fill="#009CE0" d="M13.057,4.767h5.338c0.276,0,0.5-0.224,0.5-0.5s-0.224-0.5-0.5-0.5h-5.338c-0.276,0-0.5,0.224-0.5,0.5
		S12.78,4.767,13.057,4.767z"/>
	<path fill="#009CE0" d="M12.744,8.222h5.336c0.276,0,0.5-0.224,0.5-0.5s-0.224-0.5-0.5-0.5h-5.336c-0.276,0-0.5,0.224-0.5,0.5
		S12.468,8.222,12.744,8.222z"/>
	<path fill="#009CE0" d="M18.395,10.675H14c-0.276,0-0.5,0.224-0.5,0.5s0.224,0.5,0.5,0.5h4.395c0.276,0,0.5-0.224,0.5-0.5
		S18.671,10.675,18.395,10.675z"/>
	<path fill="#009CE0" d="M18.08,14.128H14c-0.276,0-0.5,0.224-0.5,0.5s0.224,0.5,0.5,0.5h4.08c0.276,0,0.5-0.224,0.5-0.5
		S18.356,14.128,18.08,14.128z"/>
</g>
</svg>
