<?xml version="1.0" encoding="utf-8"?>
<!-- Generator: Adobe Illustrator 16.0.0, SVG Export Plug-In . SVG Version: 6.00 Build 0)  -->
<!DOCTYPE svg PUBLIC "-//W3C//DTD SVG 1.1//EN" "http://www.w3.org/Graphics/SVG/1.1/DTD/svg11.dtd">
<svg version="1.1" id="Layer_1" xmlns="http://www.w3.org/2000/svg" xmlns:xlink="http://www.w3.org/1999/xlink" x="0px" y="0px"
	 width="77.335px" height="77.335px" viewBox="0 0 77.335 77.335" enable-background="new 0 0 77.335 77.335" xml:space="preserve">
<g>
	<g>
		
			<linearGradient id="SVGID_1_" gradientUnits="userSpaceOnUse" x1="198.6553" y1="75.373" x2="253.3392" y2="20.6891" gradientTransform="matrix(1 0 0 1 -187.333 -9.3662)">
			<stop  offset="0" style="stop-color:#009CE0"/>
			<stop  offset="0.3867" style="stop-color:#00BACD"/>
			<stop  offset="1" style="stop-color:#00F2AA"/>
		</linearGradient>
		<path fill="url(#SVGID_1_)" d="M49.273,50.094c-1.018,1.047-0.991,2.719,0.054,3.735l14.557,14.14
			c1.336-1.151,2.594-2.391,3.762-3.712L53.008,50.041C51.961,49.023,50.29,49.049,49.273,50.094z M38.667,0
			C17.312,0,0,17.313,0,38.668c0,21.354,17.312,38.667,38.667,38.667c7.607,0,14.696-2.205,20.678-5.999L44.861,57.367
			c0,0-2.751-5.012-13.59-5.158C15.089,51.99,12.554,32.252,12.554,32.252l13.561,7.103l6.707-4.79l1.494-8.969l-13.493-7.684
			c0,0,5.444-4.293,15.12-2.091c4.758,1.083,10.157,4.291,12.603,13.03c2.117,7.566,0.533,11.167,7.979,18.08l14.045,13.583
			c4.265-6.216,6.766-13.737,6.766-21.847C77.335,17.313,60.022,0,38.667,0z"/>
	</g>
</g>
</svg>
