<?xml version="1.0" encoding="utf-8"?>
<!-- Generator: Adobe Illustrator 16.0.0, SVG Export Plug-In . SVG Version: 6.00 Build 0)  -->
<!DOCTYPE svg PUBLIC "-//W3C//DTD SVG 1.1//EN" "http://www.w3.org/Graphics/SVG/1.1/DTD/svg11.dtd">
<svg version="1.1" id="Layer_1" xmlns="http://www.w3.org/2000/svg" xmlns:xlink="http://www.w3.org/1999/xlink" x="0px" y="0px"
	 width="150.407px" height="101.318px" viewBox="0 0 150.407 101.318" enable-background="new 0 0 150.407 101.318"
	 xml:space="preserve">
<g>
	<path fill="#FFFFFF" d="M11.061,64.331C4.714,64.331,0,69.083,0,74.937v0.076c0,5.854,4.675,10.53,10.985,10.53
		c6.349,0,11.063-4.753,11.063-10.606V74.86C22.048,69.007,17.37,64.331,11.061,64.331z M16.346,75.013
		c0,3.004-1.978,5.549-5.285,5.549c-3.192,0-5.358-2.622-5.358-5.625V74.86c0-3.002,1.977-5.549,5.283-5.549
		c3.193,0,5.36,2.622,5.36,5.625V75.013z"/>
	<path fill="#FFFFFF" d="M41.626,64.483c-1.598,0-2.891,1.293-2.891,2.89v15.052c0,1.598,1.293,2.89,2.891,2.89
		c1.596,0,2.889-1.292,2.889-2.89V67.373C44.515,65.776,43.222,64.483,41.626,64.483z"/>
	<path fill="#FFFFFF" d="M41.626,57.146c-1.825,0-3.232,1.027-3.232,2.7v0.076c0,1.672,1.407,2.736,3.232,2.736
		c1.823,0,3.23-1.064,3.23-2.736v-0.076C44.856,58.174,43.449,57.146,41.626,57.146z"/>
	<path fill="#FFFFFF" d="M32.729,61.936h0.494c1.293,0,2.357-1.102,2.357-2.394s-0.989-2.167-1.978-2.319
		c-0.646-0.113-1.444-0.151-2.356-0.151c-2.053,0-3.61,0.532-4.676,1.596c-1.063,1.064-1.635,2.699-1.635,4.941v1.293h-0.228
		c-1.33,0-2.395,1.064-2.395,2.396c0,1.329,1.064,2.356,2.395,2.356h0.228v12.771c0,1.598,1.293,2.89,2.89,2.89
		s2.888-1.292,2.888-2.89V69.653h2.434c1.332,0,2.396-1.027,2.396-2.356c0-1.331-1.063-2.357-2.396-2.357h-2.509v-0.798
		C30.639,62.621,31.399,61.936,32.729,61.936z"/>
	<path fill="#FFFFFF" d="M65.345,81.095c0-1.369-1.063-2.47-2.432-2.47c-0.685,0-1.254,0.304-1.559,0.532
		c-1.103,0.873-2.279,1.404-3.801,1.404c-3.156,0-5.17-2.508-5.17-5.625V74.86c0-3.002,2.053-5.549,4.941-5.549
		c1.521,0,2.585,0.494,3.611,1.291c0.343,0.268,0.912,0.571,1.673,0.571c1.444,0,2.622-1.141,2.622-2.585
		c0-0.988-0.531-1.673-0.911-1.977c-1.711-1.444-3.878-2.281-6.957-2.281c-6.233,0-10.681,4.789-10.681,10.605v0.076
		c0,5.815,4.484,10.53,10.604,10.53c3.347,0,5.514-1.065,7.224-2.624C65.005,82.463,65.345,81.854,65.345,81.095z"/>
	<path fill="#FFFFFF" d="M70.251,62.659c1.824,0,3.232-1.064,3.232-2.736v-0.076c0-1.673-1.408-2.7-3.232-2.7s-3.23,1.027-3.23,2.7
		v0.076C67.021,61.595,68.427,62.659,70.251,62.659z"/>
	<path fill="#FFFFFF" d="M73.14,82.425V67.373c0-1.597-1.291-2.89-2.889-2.89c-1.597,0-2.889,1.293-2.889,2.89v15.052
		c0,1.598,1.292,2.89,2.889,2.89C71.849,85.314,73.14,84.022,73.14,82.425z"/>
	<path fill="#FFFFFF" d="M94.96,82.425V71.896c0-4.675-2.548-7.564-6.918-7.564c-2.928,0-4.639,1.559-5.969,3.27v-0.228
		c0-1.597-1.292-2.89-2.889-2.89s-2.889,1.293-2.889,2.89v15.052c0,1.598,1.292,2.89,2.889,2.89s2.889-1.292,2.889-2.89V73.72
		c0-2.736,1.406-4.142,3.611-4.142s3.496,1.405,3.496,4.142v8.705c0,1.598,1.294,2.89,2.891,2.89
		C93.667,85.314,94.96,84.022,94.96,82.425z"/>
	<path fill="#FFFFFF" d="M109.634,82.919c0,1.216,1.102,2.396,2.774,2.396c1.559,0,2.813-1.218,2.813-2.776v-9.273
		c0-2.737-0.684-4.98-2.205-6.5c-1.445-1.444-3.725-2.281-6.88-2.281c-2.699,0-4.676,0.38-6.501,1.064
		c-0.912,0.342-1.558,1.217-1.558,2.242c0,1.33,1.065,2.357,2.394,2.357c0.268,0,0.496-0.037,0.837-0.153
		c1.103-0.341,2.396-0.569,3.993-0.569c2.887,0,4.369,1.329,4.369,3.726v0.342c-1.444-0.494-2.926-0.836-4.979-0.836
		c-4.828,0-8.211,2.052-8.211,6.501v0.075c0,4.029,3.154,6.233,6.994,6.233c2.813,0,4.751-1.027,6.158-2.584V82.919z
		 M105.225,81.475c-1.863,0-3.156-0.913-3.156-2.47v-0.076c0-1.824,1.521-2.813,3.993-2.813c1.405,0,2.697,0.304,3.686,0.761v1.025
		C109.747,79.992,107.923,81.475,105.225,81.475z"/>
	<path fill="#FFFFFF" d="M68.985,100.685h-5.259v-3.429h4.647c0.16,0,0.294-0.134,0.294-0.292c0-0.159-0.134-0.293-0.294-0.293
		h-4.647v-3.354h5.197c0.159,0,0.294-0.134,0.294-0.294c0-0.158-0.135-0.292-0.294-0.292h-5.515c-0.17,0-0.316,0.146-0.316,0.316
		v7.905c0,0.172,0.146,0.317,0.316,0.317h5.576c0.158,0,0.292-0.134,0.292-0.292S69.144,100.685,68.985,100.685z"/>
	<path fill="#FFFFFF" d="M78.515,92.693h-0.061c-0.135,0-0.244,0.073-0.317,0.184l-3.33,4.904l-3.331-4.904
		c-0.086-0.11-0.184-0.184-0.317-0.184h-0.061c-0.171,0-0.317,0.147-0.317,0.317v8.003c0,0.17,0.135,0.305,0.305,0.305
		c0.171,0,0.305-0.135,0.305-0.305v-7.16l3.136,4.563c0.073,0.109,0.159,0.158,0.269,0.158c0.11,0,0.195-0.049,0.268-0.158
		l3.136-4.563v7.148c0,0.17,0.147,0.316,0.317,0.316c0.172,0,0.316-0.146,0.316-0.316v-7.991
		C78.831,92.841,78.687,92.693,78.515,92.693z"/>
	<path fill="#FFFFFF" d="M88.192,97.622c1.438-0.194,2.502-1.013,2.502-2.438v-0.026c0-0.609-0.245-1.182-0.648-1.585
		c-0.512-0.512-1.354-0.842-2.402-0.842h-3.27c-0.171,0-0.317,0.146-0.317,0.316v7.955c0,0.17,0.146,0.316,0.317,0.316
		s0.317-0.146,0.317-0.316v-3.271h2.793l2.624,3.416c0.072,0.099,0.157,0.171,0.28,0.171c0.171,0,0.329-0.158,0.329-0.328
		c0-0.074-0.037-0.148-0.098-0.22L88.192,97.622z M84.691,97.158v-3.842h2.915c1.55,0,2.453,0.72,2.453,1.867v0.022
		c0,1.232-1.062,1.952-2.49,1.952H84.691z"/>
	<path fill="#FFFFFF" d="M98.284,100.685h-5.258v-3.429h4.647c0.158,0,0.292-0.134,0.292-0.292c0-0.159-0.134-0.293-0.292-0.293
		h-4.647v-3.354h5.195c0.16,0,0.293-0.134,0.293-0.294c0-0.158-0.133-0.292-0.293-0.292h-5.514c-0.17,0-0.317,0.146-0.317,0.316
		v7.905c0,0.172,0.147,0.317,0.317,0.317h5.576c0.158,0,0.292-0.134,0.292-0.292S98.442,100.685,98.284,100.685z"/>
	<path fill="#FFFFFF" d="M102.921,92.73h-2.525c-0.17,0-0.316,0.146-0.316,0.316v7.905c0,0.172,0.146,0.317,0.316,0.317h2.525
		c2.685,0,4.539-1.866,4.539-4.269v-0.024C107.46,94.572,105.605,92.73,102.921,92.73z M106.801,97.024
		c0,2.037-1.499,3.66-3.88,3.66h-2.208v-7.368h2.208c2.381,0,3.88,1.659,3.88,3.685V97.024z"/>
	<path fill="#FFFFFF" d="M115.025,100.685h-5.257v-3.429h4.647c0.158,0,0.292-0.134,0.292-0.292c0-0.159-0.134-0.293-0.292-0.293
		h-4.647v-3.354h5.195c0.159,0,0.293-0.134,0.293-0.294c0-0.158-0.134-0.292-0.293-0.292h-5.514c-0.171,0-0.316,0.146-0.316,0.316
		v7.905c0,0.172,0.146,0.317,0.316,0.317h5.575c0.159,0,0.293-0.134,0.293-0.292S115.185,100.685,115.025,100.685z"/>
	<path fill="#FFFFFF" d="M141.12,54.873c-2.22-0.323-3.455,0.037-4.771-0.104c-5.754-0.613-8.628-4.083-9.097-4.648
		c-4.471-5.386-2.883-12.801-2.346-14.792c1.076-2.861,1.67-5.959,1.67-9.196C126.577,11.7,114.876,0,100.444,0
		S74.312,11.7,74.312,26.133c0,5.479,1.691,10.565,4.573,14.765l9.492-9.18c5.032-4.672,3.962-7.104,5.394-12.219
		c1.65-5.905,5.301-8.074,8.516-8.807c6.539-1.488,10.219,1.413,10.219,1.413l-9.119,5.192l1.01,6.062l4.531,3.237l9.166-4.8
		c0,0-1.714,13.339-12.649,13.488c-7.325,0.099-9.184,3.486-9.184,3.486l-9.789,9.438c4.043,2.564,8.833,4.056,13.974,4.056
		c2.845,0,5.579-0.462,8.143-1.301c1.939-0.484,5.396-1.21,7.951-0.953c2.61,0.261,5.594,1.086,8.084,3.152
		c3.146,2.966,3.855,5.924,4.096,8.371c0.047,0.464-0.141,3.389-0.141,4.134c0,6.027,4.887,10.915,10.914,10.915
		c6.029,0,10.916-4.887,10.916-10.915C150.407,60.192,146.378,55.644,141.12,54.873z"/>
	<path fill="#FFFFFF" d="M83.403,45.935l9.838-9.556c0.706-0.687,0.723-1.817,0.035-2.522c-0.686-0.709-1.816-0.725-2.523-0.038
		l-9.893,9.608C81.649,44.319,82.5,45.157,83.403,45.935z"/>
</g>
</svg>
