<?xml version="1.0" encoding="utf-8"?>
<!-- Generator: Adobe Illustrator 16.0.0, SVG Export Plug-In . SVG Version: 6.00 Build 0)  -->
<!DOCTYPE svg PUBLIC "-//W3C//DTD SVG 1.1//EN" "http://www.w3.org/Graphics/SVG/1.1/DTD/svg11.dtd">
<svg version="1.1" id="Layer_1" xmlns="http://www.w3.org/2000/svg" xmlns:xlink="http://www.w3.org/1999/xlink" x="0px" y="0px"
	 width="116.935px" height="49.694px" viewBox="0 0 116.935 49.694" enable-background="new 0 0 116.935 49.694"
	 xml:space="preserve">
<g>
	<path fill="#FFFFFF" d="M48.873,24.451c-4.146,0-7.222,3.103-7.222,6.924v0.049c0,3.822,3.053,6.874,7.172,6.874
		c4.144,0,7.22-3.102,7.22-6.923v-0.049C56.043,27.504,52.992,24.451,48.873,24.451z M52.322,31.425
		c0,1.961-1.293,3.624-3.449,3.624c-2.086,0-3.499-1.712-3.499-3.673v-0.049c0-1.961,1.29-3.624,3.449-3.624
		c2.084,0,3.499,1.712,3.499,3.673V31.425z"/>
	<path fill="#FFFFFF" d="M68.825,19.761c-1.191,0-2.111,0.67-2.111,1.763v0.049c0,1.092,0.92,1.787,2.111,1.787
		c1.193,0,2.107-0.694,2.107-1.787v-0.049C70.933,20.432,70.019,19.761,68.825,19.761z"/>
	<path fill="#FFFFFF" d="M68.825,24.551c-1.043,0-1.884,0.844-1.884,1.886v9.827c0,1.041,0.841,1.885,1.884,1.885
		s1.886-0.844,1.886-1.885v-9.827C70.711,25.396,69.868,24.551,68.825,24.551z"/>
	<path fill="#FFFFFF" d="M63.017,22.889h0.324c0.844,0,1.538-0.719,1.538-1.563c0-0.843-0.644-1.414-1.289-1.514
		c-0.423-0.074-0.942-0.098-1.539-0.098c-1.341,0-2.359,0.346-3.053,1.041c-0.694,0.695-1.067,1.762-1.067,3.225v0.845h-0.147
		c-0.871,0-1.564,0.694-1.564,1.563c0,0.869,0.693,1.538,1.564,1.538h0.147v8.339c0,1.041,0.842,1.885,1.887,1.885
		c1.042,0,1.887-0.844,1.887-1.885v-8.339h1.587c0.868,0,1.565-0.669,1.565-1.538c0-0.869-0.697-1.538-1.565-1.538h-1.638v-0.521
		C61.653,23.335,62.151,22.889,63.017,22.889z"/>
	<path fill="#FFFFFF" d="M84.312,35.396c0-0.894-0.695-1.615-1.589-1.615c-0.447,0-0.818,0.2-1.017,0.349
		c-0.72,0.572-1.488,0.918-2.482,0.918c-2.062,0-3.376-1.638-3.376-3.673v-0.049c0-1.961,1.341-3.624,3.229-3.624
		c0.991,0,1.687,0.323,2.357,0.844c0.222,0.173,0.594,0.372,1.089,0.372c0.944,0,1.714-0.746,1.714-1.688
		c0-0.645-0.347-1.092-0.596-1.291c-1.118-0.943-2.532-1.49-4.538-1.49c-4.071,0-6.975,3.127-6.975,6.924v0.049
		c0,3.796,2.928,6.874,6.922,6.874c2.185,0,3.599-0.694,4.715-1.712C84.086,36.289,84.312,35.892,84.312,35.396z"/>
	<path fill="#FFFFFF" d="M89.399,36.264v-9.827c0-1.042-0.844-1.886-1.887-1.886c-1.039,0-1.885,0.844-1.885,1.886v9.827
		c0,1.041,0.846,1.885,1.885,1.885C88.556,38.149,89.399,37.305,89.399,36.264z"/>
	<path fill="#FFFFFF" d="M87.513,23.36c1.191,0,2.11-0.694,2.11-1.787v-0.049c0-1.092-0.919-1.763-2.11-1.763
		s-2.106,0.67-2.106,1.763v0.049C85.406,22.666,86.321,23.36,87.513,23.36z"/>
	<path fill="#FFFFFF" d="M103.644,36.264v-6.874c0-3.052-1.661-4.939-4.516-4.939c-1.911,0-3.027,1.018-3.897,2.135v-0.149
		c0-1.042-0.843-1.886-1.886-1.886c-1.042,0-1.887,0.844-1.887,1.886v9.827c0,1.041,0.845,1.885,1.887,1.885
		c1.043,0,1.886-0.844,1.886-1.885v-5.683c0-1.787,0.92-2.706,2.357-2.706c1.44,0,2.284,0.918,2.284,2.706v5.683
		c0,1.041,0.844,1.885,1.887,1.885C102.799,38.149,103.644,37.305,103.644,36.264z"/>
	<path fill="#FFFFFF" d="M113.222,36.586c0,0.794,0.721,1.563,1.814,1.563c1.017,0,1.834-0.793,1.834-1.812v-6.054
		c0-1.786-0.447-3.251-1.438-4.244c-0.944-0.942-2.433-1.489-4.493-1.489c-1.761,0-3.051,0.249-4.242,0.695
		c-0.595,0.223-1.018,0.794-1.018,1.463c0,0.869,0.693,1.539,1.563,1.539c0.174,0,0.321-0.024,0.547-0.099
		c0.72-0.224,1.563-0.372,2.605-0.372c1.886,0,2.853,0.868,2.853,2.431v0.224c-0.941-0.322-1.909-0.546-3.252-0.546
		c-3.152,0-5.359,1.34-5.359,4.244v0.049c0,2.63,2.062,4.07,4.566,4.07c1.838,0,3.104-0.669,4.02-1.688V36.586z M110.345,35.644
		c-1.217,0-2.06-0.596-2.06-1.613v-0.05c0-1.191,0.995-1.836,2.606-1.836c0.918,0,1.762,0.199,2.406,0.496v0.671
		C113.298,34.676,112.106,35.644,110.345,35.644z"/>
	<path fill="#FFFFFF" d="M86.688,48.185h-3.433v-2.238h3.033c0.105,0,0.189-0.088,0.189-0.191c0-0.104-0.084-0.192-0.189-0.192
		h-3.033v-2.189h3.393c0.104,0,0.189-0.088,0.189-0.191c0-0.104-0.085-0.191-0.189-0.191h-3.601c-0.11,0-0.207,0.095-0.207,0.207
		v5.16c0,0.112,0.097,0.208,0.207,0.208h3.641c0.103,0,0.19-0.089,0.19-0.192C86.878,48.272,86.79,48.185,86.688,48.185z"/>
	<path fill="#FFFFFF" d="M92.907,42.968h-0.04c-0.088,0-0.157,0.047-0.208,0.119l-2.173,3.202l-2.174-3.202
		c-0.056-0.072-0.118-0.119-0.206-0.119h-0.042c-0.11,0-0.206,0.095-0.206,0.207v5.224c0,0.112,0.088,0.2,0.198,0.2
		s0.2-0.087,0.2-0.2v-4.674l2.047,2.978c0.049,0.073,0.104,0.104,0.177,0.104c0.07,0,0.124-0.031,0.174-0.104l2.046-2.978v4.666
		c0,0.112,0.097,0.208,0.207,0.208c0.112,0,0.208-0.096,0.208-0.208v-5.216C93.115,43.063,93.02,42.968,92.907,42.968z"/>
	<path fill="#FFFFFF" d="M99.227,46.186c0.938-0.127,1.632-0.66,1.632-1.594v-0.016c0-0.397-0.161-0.772-0.423-1.035
		c-0.334-0.335-0.883-0.549-1.567-0.549h-2.136c-0.112,0-0.206,0.095-0.206,0.207v5.191c0,0.112,0.094,0.208,0.206,0.208
		c0.111,0,0.208-0.096,0.208-0.208v-2.133h1.823l1.714,2.23c0.047,0.063,0.102,0.111,0.183,0.111c0.108,0,0.214-0.104,0.214-0.214
		c0-0.049-0.024-0.096-0.063-0.144L99.227,46.186z M96.94,45.884v-2.51h1.903c1.011,0,1.599,0.469,1.599,1.218v0.017
		c0,0.804-0.689,1.275-1.622,1.275H96.94z"/>
	<path fill="#FFFFFF" d="M105.812,48.185h-3.431v-2.238h3.036c0.102,0,0.188-0.088,0.188-0.191c0-0.104-0.087-0.192-0.188-0.192
		h-3.036v-2.189h3.391c0.106,0,0.194-0.088,0.194-0.191c0-0.104-0.088-0.191-0.194-0.191h-3.599c-0.109,0-0.206,0.095-0.206,0.207
		v5.16c0,0.112,0.097,0.208,0.206,0.208h3.639c0.106,0,0.191-0.089,0.191-0.192C106.003,48.272,105.918,48.185,105.812,48.185z"/>
	<path fill="#FFFFFF" d="M108.843,42.992h-1.651c-0.11,0-0.207,0.095-0.207,0.207v5.16c0,0.112,0.097,0.208,0.207,0.208h1.651
		c1.752,0,2.961-1.219,2.961-2.789v-0.016C111.804,44.194,110.595,42.992,108.843,42.992z M111.374,45.794
		c0,1.331-0.979,2.39-2.531,2.39H107.4v-4.811h1.442c1.552,0,2.531,1.083,2.531,2.404V45.794z"/>
	<path fill="#FFFFFF" d="M116.745,48.185h-3.435v-2.238h3.034c0.104,0,0.189-0.088,0.189-0.191c0-0.104-0.086-0.192-0.189-0.192
		h-3.034v-2.189h3.391c0.104,0,0.193-0.088,0.193-0.191c0-0.104-0.089-0.191-0.193-0.191h-3.601c-0.106,0-0.204,0.095-0.204,0.207
		v5.16c0,0.112,0.098,0.208,0.204,0.208h3.645c0.103,0,0.189-0.089,0.189-0.192C116.935,48.272,116.848,48.185,116.745,48.185z"/>
	<path fill="#FFFFFF" d="M49.995,7.125C49.995,3.19,46.808,0,42.87,0c-3.576,0-6.545,2.63-7.047,6.063
		c-0.213,1.448,0.021,2.255-0.068,3.113c-0.399,3.757-2.664,5.633-3.033,5.939c-3.68,3.055-8.812,1.777-9.816,1.486
		c-1.823-0.665-3.792-1.028-5.848-1.028C7.64,15.574,0,23.212,0,32.634c0,3.577,1.103,6.896,2.983,9.639l6.198-5.993
		c3.284-3.05,2.588-4.638,3.521-7.978c1.08-3.855,3.463-5.271,5.56-5.749c4.269-0.972,6.671,0.922,6.671,0.922l-5.951,3.39
		l0.659,3.958l2.958,2.114l5.982-3.134c0,0-1.117,8.708-8.258,8.805c-4.782,0.065-5.995,2.275-5.995,2.275l-6.39,6.163
		c2.639,1.674,5.766,2.647,9.119,2.647c9.424,0,17.063-7.639,17.063-17.06c0-1.838-0.294-3.604-0.83-5.262
		c-0.316-1.251-0.812-3.561-0.641-5.261c0.171-1.706,0.71-3.653,2.059-5.28c1.936-2.053,3.866-2.516,5.464-2.672
		c0.303-0.03,2.211,0.092,2.698,0.092C46.806,14.252,49.995,11.061,49.995,7.125z"/>
	<path fill="#FFFFFF" d="M12.38,37.675c-0.446-0.462-1.184-0.472-1.648-0.024l-6.455,6.273c0.514,0.583,1.069,1.129,1.658,1.637
		l6.422-6.237C12.82,38.875,12.829,38.136,12.38,37.675z"/>
</g>
</svg>
