<?xml version="1.0" encoding="utf-8"?>
<!-- Generator: Adobe Illustrator 16.0.0, SVG Export Plug-In . SVG Version: 6.00 Build 0)  -->
<!DOCTYPE svg PUBLIC "-//W3C//DTD SVG 1.1//EN" "http://www.w3.org/Graphics/SVG/1.1/DTD/svg11.dtd">
<svg version="1.1" id="Layer_1" xmlns="http://www.w3.org/2000/svg" xmlns:xlink="http://www.w3.org/1999/xlink" x="0px" y="0px"
	 width="169.755px" height="195.387px" viewBox="0 0 169.755 195.387" enable-background="new 0 0 169.755 195.387"
	 xml:space="preserve">
<g>
	<path fill="#FFFFFF" d="M69.793,129.944c0-2.759-2.025-4.866-4.783-4.866c-1.299,0-2.109,0.324-3.001,0.973
		c-2.514,1.865-5.354,2.919-8.761,2.919c-5.514,0-9.408-2.919-10.624-8.517h11.893h12.521h6.097
		c1.759,11.067,10.69,18.413,22.372,18.413c6.326,0,11.272-2.028,15.086-5.273c0.891-0.812,1.622-2.027,1.622-3.649
		c0-2.759-2.026-4.866-4.784-4.866c-1.299,0-2.11,0.324-3.003,0.973c-2.513,1.865-5.353,2.919-8.761,2.919
		c-5.514,0-9.407-2.919-10.624-8.517h24.032c0.2,0.024,0.397,0.06,0.604,0.06h17.196l-20.196,22.304
		c-1.946,2.108-2.758,3.651-2.758,6.003v0.243c0,2.919,2.515,4.947,6.003,4.947h27.738c2.758,0,5.027-2.191,5.027-4.947
		c0-2.759-2.27-5.031-5.027-5.031h-18.006l11.165-12.28c2.629,3.82,7.359,5.857,12.733,5.857c6.002,0,10.14-2.19,13.14-5.516v0.081
		c0,2.596,2.353,5.11,5.921,5.11c3.326,0,6.004-2.596,6.004-5.921v-19.789c0-5.841-1.461-10.627-4.706-13.871
		c-3.082-3.081-7.948-4.866-14.681-4.866c-5.757,0-9.976,0.811-13.869,2.271c-1.948,0.729-3.325,2.595-3.325,4.786
		c0,2.839,2.271,5.028,5.11,5.028c0.565,0,1.055-0.081,1.782-0.324c2.353-0.73,5.11-1.218,8.518-1.218
		c6.165,0,9.328,2.839,9.328,7.948v0.73c-3.082-1.054-6.245-1.784-10.625-1.784h-31.387c-1.687-8.096-8.164-16.669-20.475-16.669
		c-7.28,0-13.294,3.388-17.092,8.625V66.347c0-3.405-2.76-6.163-6.165-6.163s-6.163,2.758-6.163,6.163v31.507
		c-3.253-2.57-7.557-4.246-13-4.246c-2.269,0-4.412,0.333-6.406,0.944c-1.369-12.377-10.263-19.12-19.59-19.12
		c-6.404,0-10.543,3-13.543,7.057V66.186c0-3.406-2.758-6.164-6.165-6.164S0,62.779,0,66.186v47.853
		c0,3.407,2.758,6.164,6.165,6.164s6.165-2.757,6.165-6.083v-0.081c2.92,3.488,6.975,6.489,13.543,6.489
		c1.622,0,3.219-0.22,4.767-0.609c1.553,11.364,10.578,18.948,22.446,18.948c6.327,0,11.273-2.028,15.086-5.273
		C69.063,132.782,69.793,131.566,69.793,129.944z M149.067,117.657c3.004,0,5.762,0.649,7.868,1.622v2.19
		c0,4.46-3.893,7.624-9.65,7.624c-3.975,0-6.732-1.946-6.732-5.272v-0.163C140.553,119.767,143.798,117.657,149.067,117.657z
		 M94.289,103.503c5.191,0,8.435,3.729,9.166,9.247H84.88C85.854,107.153,89.179,103.503,94.289,103.503z M22.71,110.064
		c-5.758,0-10.542-4.786-10.542-12.002v-0.164c0-7.219,4.784-12.004,10.542-12.004c5.759,0,10.625,4.785,10.625,12.004v0.164
		C33.335,105.36,28.469,110.064,22.71,110.064z M51.869,103.503c5.191,0,8.436,3.729,9.164,9.247H42.461
		C43.434,107.153,46.759,103.503,51.869,103.503z"/>
	<path fill="#FFFFFF" d="M120.218,75.334c0.537,0.119,1.077,0.229,1.62,0.327c0.452,0.036,0.914,0.04,1.381-0.012
		c3.973-0.438,6.839-4.012,6.399-7.981c-0.438-3.973-4.008-6.84-7.98-6.401c-3.97,0.436-6.835,4.012-6.399,7.982
		C115.558,72.173,117.586,74.485,120.218,75.334z"/>
	<path fill="#FFFFFF" d="M155.631,11.007c-6.176-6.176-13.939-9.79-21.979-10.855l-6.496,39.332l39.329-6.499
		C165.421,24.946,161.807,17.183,155.631,11.007z"/>
	<path fill="#FFFFFF" d="M130.512,58.377c2.575,2.072,4.369,5.123,4.756,8.67c0.369,3.316-0.569,6.467-2.386,8.973
		c8.313-0.934,16.376-4.576,22.749-10.949c6.504-6.501,10.17-14.766,11.009-23.257c-3.169,2.337-7.112,4.58-11.87,6.134
		c-11.728,3.84-20.544-0.312-28.746-1.605l-0.156,0.943c0,0-0.778,4.364,1.03,7.272C128.152,56.578,130.512,58.377,130.512,58.377z"
		/>
	<path fill="#FFFFFF" d="M120.612,46.027c-3.949,0.256-7.874,1.776-12.044,5.866c-2.298,2.252-7.056,5.678-11.798,5.156
		c-0.508-0.056-1.001-0.146-1.484-0.257c1.671,2.964,3.757,5.756,6.282,8.279c2.523,2.525,5.314,4.609,8.276,6.279
		c-0.107-0.485-0.2-0.976-0.257-1.484c-0.521-4.74,2.907-9.5,5.16-11.798C118.835,53.901,120.355,49.978,120.612,46.027z"/>
	<path fill="#FFFFFF" d="M99.592,31.368c3.547,0.391,6.599,2.181,8.668,4.76c0,0,1.8,2.357,3.818,3.614
		c2.91,1.808,7.272,1.029,7.272,1.029l0.943-0.154c-1.294-8.205-5.443-17.021-1.606-28.748c1.556-4.756,3.8-8.7,6.134-11.869
		c-8.489,0.836-16.751,4.504-23.253,11.007c-6.375,6.372-10.019,14.436-10.947,22.747C93.126,31.941,96.276,31.004,99.592,31.368z"
		/>
	<path fill="#FFFFFF" d="M105.372,45.001c0.438-3.971-2.427-7.545-6.399-7.983c-3.974-0.435-7.546,2.429-7.981,6.401
		c-0.052,0.469-0.05,0.929-0.013,1.381c0.099,0.543,0.206,1.085,0.327,1.622c0.851,2.63,3.161,4.656,6.085,4.98
		C101.359,51.837,104.937,48.972,105.372,45.001z"/>
	<path fill="#FFFFFF" d="M89.506,180.721v-6.239h-0.003v-11.456c0-5.551-3.078-8.71-7.737-8.71c-3.728,0-6.32,2.715-7.334,5.389
		c-0.892-2.917-3.121-5.389-7.211-5.389c-3.646,0-6.077,2.674-6.969,5.064v-4.577h-1.297v20.419h1.297V163.35
		c0-4.416,3.281-7.818,6.848-7.818c3.849,0,6.481,2.714,6.481,7.576v12.115h1.295v-11.913c0-4.617,3.324-7.777,6.808-7.777
		c3.93,0,6.523,2.673,6.523,7.617v11.333v0.74V194.9h1.299v-9.683c0-5.024,3.524-9.805,8.467-9.805h0.203v-1.337
		C93.842,173.953,90.722,177.235,89.506,180.721z"/>
	<path fill="#FFFFFF" d="M110.165,173.994c-5.631,0-9.764,4.62-9.764,10.616v0.08c0,6.524,4.619,10.697,10.131,10.697
		c3.727,0,6.48-1.783,8.346-4.214l-0.974-0.77c-1.621,2.106-4.174,3.768-7.333,3.768c-4.578,0-8.508-3.444-8.752-8.994h17.706
		v-0.446C119.525,179.262,116.324,173.994,110.165,173.994z M101.819,184.001c0.244-5.023,3.647-8.791,8.266-8.791
		c5.106,0,7.819,4.335,8.022,8.791H101.819z"/>
	<path fill="#FFFFFF" d="M143.223,180.031c-1.377-3.362-4.538-6.038-9.034-6.038c-5.51,0-10.089,4.457-10.089,10.656v0.081
		c0,6.24,4.579,10.656,10.089,10.656c4.457,0,7.614-2.716,9.034-6.118v5.632h1.297v-29.576h-1.297V180.031z M143.303,184.73
		c0,5.269-3.969,9.4-8.993,9.4c-5.065,0-8.832-4.052-8.832-9.441v-0.08c0-5.47,3.687-9.36,8.832-9.36c4.983,0,8.993,4.134,8.993,9.4
		V184.73z"/>
	<path fill="#FFFFFF" d="M169.755,184.73c0-5.469-3.199-10.737-9.358-10.737c-5.631,0-9.762,4.62-9.762,10.616v0.08
		c0,6.524,4.616,10.697,10.127,10.697c3.727,0,6.482-1.783,8.348-4.214l-0.976-0.77c-1.619,2.106-4.172,3.768-7.332,3.768
		c-4.577,0-8.507-3.444-8.751-8.994h17.704V184.73z M152.051,184.001c0.244-5.023,3.647-8.791,8.264-8.791
		c5.106,0,7.819,4.335,8.024,8.791H152.051z"/>
	<path fill="#FFFFFF" d="M43.686,154.315c-5.631,0-9.766,4.619-9.766,10.614v0.081c0,6.525,4.618,10.697,10.13,10.697
		c3.726,0,6.483-1.783,8.346-4.214l-0.973-0.77c-1.619,2.108-4.173,3.769-7.332,3.769c-4.577,0-8.51-3.445-8.753-8.995h17.707
		v-0.444C53.045,159.583,49.845,154.315,43.686,154.315z M35.338,164.324c0.243-5.025,3.646-8.792,8.266-8.792
		c5.105,0,7.819,4.335,8.023,8.792H35.338z"/>
</g>
</svg>
