<?xml version="1.0" encoding="utf-8"?>
<!-- Generator: Adobe Illustrator 16.0.0, SVG Export Plug-In . SVG Version: 6.00 Build 0)  -->
<!DOCTYPE svg PUBLIC "-//W3C//DTD SVG 1.1//EN" "http://www.w3.org/Graphics/SVG/1.1/DTD/svg11.dtd">
<svg version="1.1" id="Layer_1" xmlns="http://www.w3.org/2000/svg" xmlns:xlink="http://www.w3.org/1999/xlink" x="0px" y="0px"
	 width="183.321px" height="35.565px" viewBox="0 0 183.321 35.565" enable-background="new 0 0 183.321 35.565"
	 xml:space="preserve">
<g>
	<g>
		<path fill="#FFFFFF" d="M150.302,20.196v-2.564h-0.004v-4.713c0-2.286-1.265-3.585-3.182-3.585c-1.533,0-2.602,1.117-3.018,2.217
			c-0.367-1.201-1.283-2.217-2.968-2.217c-1.5,0-2.5,1.099-2.866,2.083V9.532h-0.534v8.402h0.534V13.05
			c0-1.816,1.35-3.218,2.816-3.218c1.584,0,2.667,1.118,2.667,3.118v4.984h0.534v-4.903c0-1.898,1.367-3.199,2.802-3.199
			c1.615,0,2.684,1.1,2.684,3.134v4.665v0.303v8.097h0.534v-3.985c0-2.066,1.45-4.031,3.482-4.031h0.085v-0.551
			C152.086,17.413,150.802,18.765,150.302,20.196z"/>
		<path fill="#FFFFFF" d="M158.802,17.428c-2.317,0-4.017,1.902-4.017,4.37v0.032c0,2.686,1.9,4.402,4.168,4.402
			c1.533,0,2.667-0.734,3.435-1.735l-0.4-0.317c-0.667,0.868-1.718,1.553-3.018,1.553c-1.884,0-3.501-1.419-3.602-3.702h7.287
			v-0.185C162.655,19.597,161.337,17.428,158.802,17.428z M155.368,21.545c0.101-2.064,1.501-3.617,3.401-3.617
			c2.102,0,3.218,1.784,3.302,3.617H155.368z"/>
		<path fill="#FFFFFF" d="M172.404,19.915c-0.566-1.385-1.866-2.487-3.716-2.487c-2.268,0-4.151,1.837-4.151,4.388v0.031
			c0,2.568,1.884,4.386,4.151,4.386c1.832,0,3.131-1.117,3.716-2.517v2.315h0.533V13.862h-0.533V19.915z M172.438,21.847
			c0,2.169-1.635,3.868-3.701,3.868c-2.084,0-3.634-1.666-3.634-3.885v-0.032c0-2.251,1.517-3.851,3.634-3.851
			c2.051,0,3.701,1.701,3.701,3.868V21.847z"/>
		<path fill="#FFFFFF" d="M183.321,21.847c0-2.25-1.316-4.419-3.85-4.419c-2.318,0-4.016,1.902-4.016,4.37v0.032
			c0,2.686,1.898,4.402,4.165,4.402c1.534,0,2.668-0.734,3.436-1.735l-0.401-0.317c-0.666,0.868-1.717,1.553-3.017,1.553
			c-1.884,0-3.5-1.419-3.602-3.702h7.284V21.847z M176.037,21.545c0.102-2.064,1.501-3.617,3.399-3.617
			c2.103,0,3.219,1.784,3.304,3.617H176.037z"/>
		<path fill="#FFFFFF" d="M131.447,9.333c-2.317,0-4.019,1.9-4.019,4.367v0.033c0,2.685,1.9,4.403,4.168,4.403
			c1.533,0,2.669-0.734,3.436-1.737l-0.4-0.315c-0.667,0.867-1.717,1.55-3.019,1.55c-1.882,0-3.501-1.416-3.601-3.7h7.285V13.75
			C135.298,11.5,133.981,9.333,131.447,9.333z M128.013,13.45c0.1-2.068,1.501-3.618,3.402-3.618c2.1,0,3.217,1.783,3.3,3.618
			H128.013z"/>
	</g>
	<g>
		<path fill="#FFFFFF" d="M20.631,26.383c0,0-1.265-2.305-6.249-2.373c-7.442-0.101-8.608-9.178-8.608-9.178l6.236,3.266
			l3.085-2.203l0.687-4.125L9.576,8.238c0,0,2.504-1.974,6.954-0.961c2.188,0.498,4.671,1.973,5.795,5.992
			c0.974,3.48,0.245,5.135,3.67,8.314l6.459,6.247c1.961-2.859,3.111-6.318,3.111-10.047C35.565,7.962,27.604,0,17.782,0
			C7.962,0,0,7.962,0,17.783s7.962,17.783,17.782,17.783c3.499,0,6.759-1.015,9.51-2.759L20.631,26.383z"/>
		<path fill="#FFFFFF" d="M24.378,23.013c-0.481-0.468-1.25-0.457-1.718,0.024c-0.468,0.481-0.456,1.25,0.024,1.718l6.695,6.502
			c0.614-0.53,1.192-1.099,1.729-1.707L24.378,23.013z"/>
	</g>
	<g>
		<path fill="#FFFFFF" d="M117.679,6.49c-1.25-1.25-3.226-1.975-5.957-1.975c-2.338,0-4.049,0.329-5.629,0.922
			c-0.79,0.296-1.35,1.053-1.35,1.942c0,1.151,0.921,2.041,2.074,2.041c0.229,0,0.428-0.033,0.725-0.131
			c0.954-0.296,2.072-0.494,3.455-0.494c2.502,0,3.785,1.152,3.785,3.226v0.296c-1.251-0.428-2.534-0.724-4.312-0.724
			c-2.372,0-4.34,0.573-5.601,1.771c-1.024-1.284-2.596-1.999-4.619-1.999c-2.534,0-4.016,1.35-5.168,2.831v-0.198
			c0-1.382-1.119-2.501-2.501-2.501c-1.126,0-2.077,0.743-2.392,1.765v-2.958c0-1.383-1.119-2.502-2.502-2.502
			c-1.382,0-2.501,1.119-2.501,2.502v6.597c-1.399-1.006-3.145-1.58-5.515-1.58c-2.934,0-5.408,1.227-7.059,3.153v-6.139
			c0-1.343-1.119-2.43-2.502-2.43h-3.358h-1.716h-0.457V9.214c0-1.316,0.658-1.909,1.812-1.909h0.427
			c0.069,0,0.136-0.004,0.202-0.011h3.091c1.351,0,2.391-0.811,2.391-2.087V5.151c0-1.276-1.04-2.058-2.391-2.058h-4.963v0
			c-0.014,0-0.026,0-0.041,0c-1.777,0-3.128,0.46-4.049,1.382c-0.59,0.589-1.004,1.383-1.226,2.387
			c-1.669-2.411-4.522-3.983-7.927-3.983c-5.497,0-9.579,4.115-9.579,9.185v0.065c0,5.069,4.049,9.117,9.513,9.117
			c3.308,0,6.102-1.491,7.804-3.782v7.582c0,1.382,1.118,2.502,2.501,2.502s2.502-1.12,2.502-2.502v-11.06h0.391h1.716h0.856v11.009
			c0,1.343,1.12,2.43,2.502,2.43c0.25,0,0.49-0.036,0.718-0.103c1.125,3.69,4.487,6.366,8.776,6.366
			c2.896,0,4.773-0.922,6.254-2.271c0.428-0.395,0.725-0.921,0.725-1.58c0-1.185-0.922-2.14-2.107-2.14
			c-0.592,0-1.086,0.263-1.35,0.46c-0.954,0.758-1.975,1.219-3.29,1.219c-2.733,0-4.478-2.172-4.478-4.872v-0.066
			c0-2.6,1.777-4.805,4.279-4.805c1.316,0,2.238,0.428,3.127,1.118c0.296,0.231,0.79,0.495,1.448,0.495
			c0.348,0,0.677-0.079,0.973-0.216v2.308c0,1.382,1.119,2.501,2.501,2.501c1.127,0,2.078-0.743,2.392-1.766v2.959
			c0,1.383,1.12,2.502,2.502,2.502s2.501-1.119,2.501-2.502v-7.538c0-2.369,1.219-3.587,3.128-3.587s3.028,1.218,3.028,3.587v7.538
			c0,1.383,1.119,2.502,2.501,2.502c1.383,0,2.502-1.119,2.502-2.502V22c0.925,0.452,2.014,0.686,3.175,0.686
			c2.436,0,4.114-0.888,5.332-2.238v0.033c0,1.054,0.955,2.074,2.403,2.074c1.35,0,2.436-1.054,2.436-2.403V12.12
			C119.588,9.75,118.995,7.808,117.679,6.49z M56.482,12.13c0,2.6-1.712,4.806-4.575,4.806c-2.766,0-4.642-2.271-4.642-4.871v-0.066
			c0-2.601,1.712-4.806,4.575-4.806c2.766,0,4.642,2.271,4.642,4.872V12.13z M114.849,16.135c0,1.811-1.581,3.094-3.918,3.094
			c-1.612,0-2.732-0.789-2.732-2.139v-0.066c0-1.58,1.318-2.435,3.457-2.435c1.218,0,2.337,0.263,3.193,0.658V16.135z"/>
		<path fill="#FFFFFF" d="M87.688,5.956c1.352,0,2.392-0.787,2.392-2.026V3.874c0-1.238-1.04-1.997-2.392-1.997
			c-1.35,0-2.391,0.759-2.391,1.997V3.93C85.298,5.168,86.339,5.956,87.688,5.956z"/>
	</g>
</g>
</svg>
