<?xml version="1.0" encoding="UTF-8"?>
<!DOCTYPE svg PUBLIC "-//W3C//DTD SVG 1.1//EN" "http://www.w3.org/Graphics/SVG/1.1/DTD/svg11.dtd">
<!-- Creator: CorelDRAW X7 -->
<svg xmlns="http://www.w3.org/2000/svg" xml:space="preserve" width="173px" height="36px" version="1.1" style="shape-rendering:geometricPrecision; text-rendering:geometricPrecision; image-rendering:optimizeQuality; fill-rule:evenodd; clip-rule:evenodd"
viewBox="0 0 938975 196063"
 xmlns:xlink="http://www.w3.org/1999/xlink">
 <defs>
  <style type="text/css">
   <![CDATA[
    .fil0 {fill:#FEFEFE;fill-rule:nonzero}
   ]]>
  </style>
 </defs>
 <g id="Camada_x0020_1">
  <metadata id="CorelCorpID_0Corel-Layer"/>
  <path class="fil0" d="M358128 90709c10833,0 17593,7777 19110,19284l-38734 0c2021,-11666 8955,-19284 19624,-19284zm-60832 13681c-12011,0 -21990,-9978 -21990,-25030l0 -344c0,-15061 9979,-25041 21990,-25041 12011,0 22165,9980 22165,25041l0 344c0,15221 -10154,25030 -22165,25030zm149318 -13681c10833,0 17598,7777 19121,19284l-38745 0c2026,-11666 8966,-19284 19624,-19284zm114276 29526c6266,0 12023,1359 16415,3380l0 4567c0,9306 -8123,15906 -20139,15906 -8292,0 -14043,-4054 -14043,-10998l0 -340c0,-8123 6776,-12515 17767,-12515zm-165376 25628c0,-5751 -4223,-10149 -9979,-10149 -2700,0 -4397,673 -6260,2032 -5248,3894 -11167,6084 -18276,6084 -11501,0 -19624,-6084 -22160,-17767l24805 0 26114 0 12729 0c3664,23096 22302,38416 46668,38416 13194,0 23513,-4229 31465,-10998 1863,-1692 3385,-4234 3385,-7618 0,-5751 -4228,-10149 -9978,-10149 -2712,0 -4398,673 -6255,2032 -5252,3894 -11174,6084 -18283,6084 -11501,0 -19624,-6084 -22165,-17767l50131 0 1270 131 35863 0 -42134 46532c-4047,4393 -5750,7603 -5750,12515l0 515c0,6084 5252,10307 12532,10307l57857 0c5757,0 10489,-4567 10489,-10307 0,-5757 -4732,-10504 -10489,-10504l-37560 0 23288 -25611c5482,7969 15351,12214 26562,12214 12526,0 21158,-4567 27418,-11507l0 169c0,5412 4903,10664 12345,10664 6934,0 12532,-5423 12532,-12356l0 -41280c0,-12180 -3057,-22176 -9826,-28935 -6424,-6430 -16584,-10148 -30622,-10148 -12005,0 -20813,1687 -28934,4738 -4064,1517 -6933,5410 -6933,9978 0,5926 4732,10493 10658,10493 1183,0 2206,-169 3718,-683 4912,-1518 10664,-2537 17773,-2537 12853,0 19453,5926 19453,16580l0 1521c-6424,-2195 -13028,-3712 -22165,-3712l-65471 0c-3517,-16891 -17033,-34779 -42715,-34779 -15187,0 -27730,7071 -35655,17998l0 -74859c0,-7105 -5751,-12860 -12860,-12860 -7103,0 -12859,5755 -12859,12860l0 65722c-6782,-5362 -15758,-8861 -27112,-8861 -4737,0 -9206,695 -13363,1971 -2859,-25823 -21410,-39889 -40863,-39889 -13365,0 -22001,6266 -28263,14729l0 -34006c0,-7115 -5755,-12866 -12859,-12866 -7103,0 -12860,5751 -12860,12866l0 99816c0,7115 5757,12855 12860,12855 7104,0 12859,-5740 12859,-12684l0 -171c6097,7274 14558,13529 28263,13529 3373,0 6708,-449 9940,-1259 3237,23704 22055,39527 46817,39527 13199,0 23523,-4229 31475,-10998 1857,-1692 3380,-4234 3380,-7618z"/>
  <path class="fil0" d="M72955 190033c1324,289 2645,569 3991,800 1112,87 2251,109 3402,-28 9793,-1074 16859,-9887 15773,-19674 -1079,-9787 -9880,-16857 -19667,-15778 -9787,1079 -16853,9896 -15774,19683 783,7208 5779,12909 12275,14997z"/>
  <path class="fil0" d="M160237 31468c-15225,-15210 -34362,-24120 -54172,-26755l-16009 96948 96936 -16010c-2624,-19815 -11528,-38951 -26755,-54183z"/>
  <path class="fil0" d="M98317 148238c6348,5105 10774,12625 11732,21372 908,8177 -1408,15938 -5883,22109 20489,-2294 40366,-11271 56073,-26984 16027,-16025 25067,-36394 27132,-57327 -7811,5768 -17525,11293 -29256,15128 -28897,9464 -50635,-773 -70856,-3961l-383 2323c0,0 -1917,10762 2541,17925 3095,4973 8900,9415 8900,9415z"/>
  <path class="fil0" d="M73928 117794c-9733,631 -19416,4377 -29690,14465 -5670,5538 -17395,13989 -29084,12708 -1243,-138 -2464,-362 -3647,-631 4113,7307 9256,14186 15477,20396 6217,6227 13102,11364 20391,15479 -262,-1183 -481,-2405 -624,-3654 -1287,-11682 7163,-23419 12706,-29077 10084,-10281 13830,-19953 14471,-29686z"/>
  <path class="fil0" d="M22105 81660c8753,964 16272,5377 21372,11737 0,0 4435,5804 9414,8911 7170,4447 17926,2531 17926,2531l2322 -373c-3187,-20226 -13418,-41965 -3959,-70866 3834,-11727 9365,-21448 15111,-29259 -20917,2065 -41286,11102 -57305,27127 -15719,15715 -24702,35590 -26986,56074 6173,-4470 13939,-6781 22105,-5882z"/>
  <path class="fil0" d="M36359 115270c1079,-9787 -5985,-18599 -15779,-19684 -9793,-1068 -18594,5991 -19667,15780 -127,1155 -121,2288 -39,3400 252,1336 516,2673 821,4003 2087,6481 7783,11475 14985,12279 9787,1069 18606,-6002 19679,-15778z"/>
  <path class="fil0" d="M763898 129283l0 -13605 -15 0 0 -24991c0,-12120 -6710,-19010 -16875,-19010 -8127,0 -13791,5926 -15998,11759 -1944,-6364 -6808,-11759 -15735,-11759 -7952,0 -13260,5833 -15199,11052l0 -9990 -2832 0 0 44556 2832 0 0 -25901c0,-9640 7154,-17061 14936,-17061 8396,0 14136,5926 14136,16524l0 26438 2837 0 0 -26001c0,-10060 7245,-16961 14853,-16961 8566,0 14230,5827 14230,16612l0 24733 0 1617 0 42922 2830 0 0 -21125c0,-10953 7688,-21381 18467,-21381l449 0 0 -2919c-9453,-269 -16264,6895 -18916,14491z"/>
  <path class="fil0" d="M790758 136439c536,-10953 7959,-19180 18036,-19180 11139,0 17061,9459 17503,19180l-35539 0zm18205 -21830c-12285,0 -21294,10082 -21294,23166l0 171c0,14240 10073,23342 22100,23342 8127,0 14140,-3893 18211,-9201l-2125 -1676c-3534,4601 -9109,8227 -16004,8227 -9986,0 -18557,-7520 -19093,-19630l38640 0 0 -975c0,-11928 -6995,-23424 -20435,-23424z"/>
  <path class="fil0" d="M881267 138033c0,11503 -8664,20506 -19619,20506 -11057,0 -19273,-8834 -19273,-20593l0 -169c0,-11940 8045,-20419 19273,-20419 10866,0 19619,9016 19619,20506l0 169zm-175 -10246c-3007,-7339 -9902,-13178 -19706,-13178 -12023,0 -22012,9732 -22012,23255l0 169c0,13616 9989,23255 22012,23255 9722,0 16601,-5926 19706,-13347l0 12279 2825 0 0 -64523 -2825 0 0 32090z"/>
  <path class="fil0" d="M900351 136439c537,-10953 7958,-19180 18025,-19180 11145,0 17060,9459 17515,19180l-35540 0zm38624 1594c0,-11928 -6984,-23424 -20419,-23424 -12285,0 -21288,10082 -21288,23166l0 171c0,14240 10060,23342 22087,23342 8128,0 14148,-3893 18218,-9201l-2137 -1676c-3527,4601 -9097,8227 -15992,8227 -9984,0 -18556,-7520 -19093,-19630l38624 0 0 -975z"/>
  <path class="fil0" d="M645717 93511c531,-10963 7958,-19179 18040,-19179 11135,0 17056,9459 17499,19179l-35539 0zm18211 -21830c-12285,0 -21300,10078 -21300,23156l0 171c0,14240 10072,23342 22100,23342 8127,0 14146,-3883 18205,-9201l-2120 -1665c-3533,4600 -9102,8216 -16003,8216 -9980,0 -18562,-7509 -19093,-19619l38628 0 0 -975c0,-11939 -6977,-23425 -20417,-23425z"/>
 </g>
</svg>
