<?xml version="1.0" encoding="utf-8"?>
<!-- Generator: Adobe Illustrator 16.0.0, SVG Export Plug-In . SVG Version: 6.00 Build 0)  -->
<!DOCTYPE svg PUBLIC "-//W3C//DTD SVG 1.1//EN" "http://www.w3.org/Graphics/SVG/1.1/DTD/svg11.dtd">
<svg version="1.1" id="Layer_1" xmlns="http://www.w3.org/2000/svg" xmlns:xlink="http://www.w3.org/1999/xlink" x="0px" y="0px"
	 width="151.624px" height="165.82px" viewBox="0 0 151.624 165.82" enable-background="new 0 0 151.624 165.82"
	 xml:space="preserve">
<g>
	<path fill="#FFFFFF" d="M50.644,153.959v-5.039h-0.008v-9.262c0-4.492-2.486-7.044-6.253-7.044c-3.013,0-5.111,2.194-5.929,4.355
		c-0.723-2.36-2.524-4.355-5.832-4.355c-2.948,0-4.914,2.158-5.635,4.092v-3.701h-1.049v16.511h1.049v-9.598
		c0-3.57,2.653-6.324,5.537-6.324c3.11,0,5.239,2.198,5.239,6.127v9.795h1.05v-9.635c0-3.731,2.687-6.287,5.505-6.287
		c3.175,0,5.275,2.162,5.275,6.159v9.167v0.596v15.91h1.05v-7.831c0-4.06,2.848-7.922,6.842-7.922h0.168v-1.083
		C54.148,148.491,51.624,151.146,50.644,153.959z"/>
	<path fill="#FFFFFF" d="M67.345,148.521c-4.554,0-7.893,3.737-7.893,8.587v0.063c0,5.278,3.734,8.65,8.189,8.65
		c3.014,0,5.242-1.441,6.751-3.408l-0.787-0.622c-1.312,1.705-3.376,3.049-5.931,3.049c-3.701,0-6.88-2.787-7.078-7.275h14.321
		v-0.362C74.918,152.782,72.325,148.521,67.345,148.521z M60.597,156.611c0.198-4.057,2.951-7.107,6.685-7.107
		c4.13,0,6.324,3.503,6.488,7.107H60.597z"/>
	<path fill="#FFFFFF" d="M94.075,153.407c-1.113-2.722-3.669-4.887-7.302-4.887c-4.456,0-8.158,3.61-8.158,8.621v0.061
		c0,5.048,3.702,8.618,8.158,8.618c3.601,0,6.152-2.194,7.302-4.944v4.55h1.049v-23.914h-1.049V153.407z M94.142,157.203
		c0,4.262-3.212,7.601-7.271,7.601c-4.097,0-7.142-3.273-7.142-7.633v-0.063c0-4.425,2.98-7.568,7.142-7.568
		c4.028,0,7.271,3.343,7.271,7.602V157.203z"/>
	<path fill="#FFFFFF" d="M107.961,148.521c-4.554,0-7.891,3.737-7.891,8.587v0.063c0,5.278,3.731,8.65,8.187,8.65
		c3.013,0,5.243-1.441,6.752-3.408l-0.791-0.622c-1.309,1.705-3.372,3.049-5.928,3.049c-3.701,0-6.878-2.787-7.076-7.275h14.313
		v-0.362C115.527,152.782,112.941,148.521,107.961,148.521z M101.214,156.611c0.198-4.057,2.949-7.107,6.681-7.107
		c4.131,0,6.323,3.503,6.491,7.107H101.214z"/>
	<path fill="#FFFFFF" d="M13.591,132.614c-4.553,0-7.895,3.734-7.895,8.58v0.066c0,5.274,3.734,8.65,8.189,8.65
		c3.014,0,5.244-1.441,6.75-3.413l-0.786-0.619c-1.31,1.705-3.372,3.047-5.932,3.047c-3.697,0-6.881-2.783-7.076-7.271h14.317
		v-0.363C21.159,136.87,18.573,132.614,13.591,132.614z M6.842,140.704c0.195-4.064,2.95-7.111,6.687-7.111
		c4.126,0,6.321,3.503,6.486,7.111H6.842z"/>
	<path fill="#FFFFFF" d="M90.372,61.873c6.086,0,11.758-1.765,16.544-4.8L95.328,45.897c0,0-2.201-4.01-10.873-4.127
		c-12.947-0.175-14.976-15.967-14.976-15.967l10.85,5.682l5.366-3.833l1.195-7.175l-10.796-6.147c0,0,4.356-3.435,12.098-1.673
		c3.807,0.867,8.127,3.433,10.083,10.425c1.693,6.054,0.427,8.934,6.384,14.465l11.236,10.867
		c3.412-4.974,5.414-10.991,5.414-17.479C121.31,13.851,107.458,0,90.372,0S59.437,13.851,59.437,30.937
		C59.437,48.021,73.286,61.873,90.372,61.873z"/>
	<path fill="#FFFFFF" d="M98.858,40.079c-0.814,0.837-0.793,2.175,0.043,2.988l11.646,11.313c1.069-0.921,2.075-1.912,3.01-2.969
		l-11.711-11.374C101.009,39.222,99.671,39.242,98.858,40.079z"/>
	<g>
		<path fill="#FFFFFF" d="M147.877,79.349c-2.453-2.454-6.33-3.875-11.69-3.875c-4.588,0-7.947,0.645-11.047,1.809
			c-1.551,0.581-2.649,2.066-2.649,3.811c0,2.26,1.808,4.005,4.071,4.005c0.45,0,0.839-0.064,1.421-0.258
			c1.872-0.581,4.068-0.97,6.782-0.97c4.909,0,7.429,2.261,7.429,6.331v0.582c-2.456-0.841-4.975-1.421-8.462-1.421
			c-4.656,0-8.518,1.124-10.99,3.476c-2.012-2.519-5.095-3.923-9.065-3.923c-4.974,0-7.882,2.649-10.143,5.556v-0.389
			c0-2.713-2.196-4.909-4.909-4.909c-2.21,0-4.077,1.458-4.693,3.464v-5.806c0-2.713-2.195-4.91-4.909-4.91
			c-2.713,0-4.909,2.197-4.909,4.91V99.78c-2.746-1.975-6.172-3.1-10.822-3.1c-5.757,0-10.615,2.407-13.854,6.188V90.821
			c0-2.637-2.196-4.769-4.91-4.769h-6.59h-3.368h-0.896v-1.357c0-2.583,1.292-3.746,3.554-3.746h0.839
			c0.135,0,0.266-0.008,0.396-0.021h6.064c2.65,0,4.693-1.593,4.693-4.096v-0.112c0-2.504-2.043-4.039-4.693-4.039h-9.737l0,0
			c-0.028,0-0.054,0-0.083,0c-3.488,0-6.138,0.903-7.945,2.712c-1.158,1.158-1.971,2.716-2.405,4.686
			c-3.274-4.73-8.876-7.816-15.557-7.816C8.011,72.264,0,80.339,0,90.288v0.128c0,9.949,7.945,17.894,18.669,17.894
			c6.492,0,11.975-2.926,15.314-7.422v14.879c0,2.713,2.195,4.911,4.908,4.911c2.714,0,4.91-2.198,4.91-4.911V94.062h0.767h3.368
			h1.681v21.605c0,2.635,2.198,4.769,4.909,4.769c0.49,0,0.963-0.072,1.408-0.201c2.209,7.242,8.807,12.492,17.226,12.492
			c5.684,0,9.366-1.809,12.272-4.457c0.841-0.775,1.421-1.808,1.421-3.101c0-2.326-1.809-4.199-4.134-4.199
			c-1.162,0-2.131,0.517-2.648,0.903c-1.873,1.487-3.875,2.392-6.458,2.392c-5.363,0-8.787-4.262-8.787-9.561v-0.129
			c0-5.103,3.489-9.431,8.398-9.431c2.582,0,4.393,0.841,6.136,2.196c0.581,0.454,1.552,0.971,2.844,0.971
			c0.683,0,1.328-0.155,1.908-0.425v4.529c0,2.713,2.196,4.909,4.909,4.909c2.21,0,4.077-1.458,4.693-3.464v5.806
			c0,2.714,2.196,4.911,4.909,4.911s4.909-2.196,4.909-4.911v-14.793c0-4.649,2.39-7.04,6.138-7.04c3.746,0,5.943,2.391,5.943,7.04
			v14.793c0,2.714,2.196,4.911,4.908,4.911c2.714,0,4.91-2.196,4.91-4.911v-9.878c1.816,0.887,3.952,1.346,6.23,1.346
			c4.78,0,8.074-1.743,10.466-4.392v0.064c0,2.068,1.872,4.071,4.715,4.071c2.649,0,4.78-2.068,4.78-4.716V90.396
			C151.624,85.745,150.462,81.935,147.877,79.349z M27.778,90.416c0,5.103-3.359,9.431-8.979,9.431c-5.427,0-9.109-4.457-9.109-9.56
			v-0.13c0-5.103,3.359-9.432,8.979-9.432c5.427,0,9.109,4.458,9.109,9.562V90.416z M142.321,98.276
			c0,3.554-3.101,6.073-7.687,6.073c-3.165,0-5.362-1.549-5.362-4.199v-0.129c0-3.1,2.586-4.779,6.783-4.779
			c2.391,0,4.587,0.516,6.266,1.291V98.276z"/>
		<path fill="#FFFFFF" d="M89.021,78.299c2.651,0,4.693-1.545,4.693-3.976v-0.11c0-2.429-2.042-3.919-4.693-3.919
			c-2.649,0-4.692,1.49-4.692,3.919v0.11C84.329,76.754,86.372,78.299,89.021,78.299z"/>
	</g>
</g>
</svg>
