<?xml version="1.0" encoding="utf-8"?>
<!-- Generator: Adobe Illustrator 16.0.0, SVG Export Plug-In . SVG Version: 6.00 Build 0)  -->
<!DOCTYPE svg PUBLIC "-//W3C//DTD SVG 1.1//EN" "http://www.w3.org/Graphics/SVG/1.1/DTD/svg11.dtd">
<svg version="1.1" id="Layer_1" xmlns="http://www.w3.org/2000/svg" xmlns:xlink="http://www.w3.org/1999/xlink" x="0px" y="0px"
	 width="146.239px" height="50.301px" viewBox="0 0 146.239 50.301" enable-background="new 0 0 146.239 50.301"
	 xml:space="preserve">
<g>
	<path fill="#FFFFFF" d="M58.027,19.872c-4.922,0-8.572,3.685-8.572,8.221v0.059c0,4.539,3.624,8.161,8.514,8.161
		c4.921,0,8.574-3.682,8.574-8.22v-0.058C66.543,23.496,62.918,19.872,58.027,19.872z M62.124,28.151
		c0,2.329-1.537,4.303-4.097,4.303c-2.475,0-4.155-2.034-4.155-4.361v-0.058c0-2.329,1.534-4.303,4.097-4.303
		c2.475,0,4.155,2.034,4.155,4.361V28.151z"/>
	<path fill="#FFFFFF" d="M81.718,14.303c-1.414,0-2.507,0.796-2.507,2.093v0.058c0,1.297,1.093,2.122,2.507,2.122
		c1.417,0,2.503-0.825,2.503-2.122v-0.058C84.221,15.099,83.135,14.303,81.718,14.303z"/>
	<path fill="#FFFFFF" d="M81.718,19.99c-1.239,0-2.235,1.003-2.235,2.239v11.668c0,1.236,0.996,2.238,2.235,2.238
		c1.238,0,2.239-1.001,2.239-2.238V22.229C83.957,20.993,82.956,19.99,81.718,19.99z"/>
	<path fill="#FFFFFF" d="M74.82,18.016h0.387c1.002,0,1.825-0.854,1.825-1.856s-0.765-1.679-1.531-1.798
		c-0.501-0.088-1.117-0.116-1.826-0.116c-1.591,0-2.803,0.411-3.624,1.236c-0.826,0.826-1.268,2.092-1.268,3.829v1.003h-0.177
		c-1.033,0-1.856,0.824-1.856,1.855c0,1.031,0.823,1.826,1.856,1.826h0.177v9.901c0,1.236,0.999,2.238,2.24,2.238
		c1.237,0,2.24-1.001,2.24-2.238v-9.901h1.883c1.031,0,1.86-0.794,1.86-1.826c0-1.032-0.829-1.826-1.86-1.826h-1.943v-0.62
		C73.203,18.546,73.795,18.016,74.82,18.016z"/>
	<path fill="#FFFFFF" d="M100.105,32.867c0-1.062-0.826-1.917-1.886-1.917c-0.532,0-0.972,0.237-1.208,0.414
		c-0.854,0.679-1.768,1.091-2.946,1.091c-2.45,0-4.009-1.945-4.009-4.361v-0.058c0-2.329,1.591-4.303,3.832-4.303
		c1.179,0,2.003,0.384,2.8,1.003c0.263,0.206,0.704,0.441,1.293,0.441c1.122,0,2.035-0.885,2.035-2.003
		c0-0.766-0.411-1.296-0.708-1.533c-1.327-1.119-3.006-1.768-5.388-1.768c-4.835,0-8.282,3.713-8.282,8.221v0.059
		c0,4.508,3.477,8.161,8.219,8.161c2.595,0,4.273-0.823,5.598-2.033C99.838,33.927,100.105,33.455,100.105,32.867z"/>
	<path fill="#FFFFFF" d="M106.146,33.897V22.229c0-1.236-1.002-2.239-2.24-2.239c-1.233,0-2.237,1.003-2.237,2.239v11.668
		c0,1.236,1.004,2.238,2.237,2.238C105.145,36.135,106.146,35.134,106.146,33.897z"/>
	<path fill="#FFFFFF" d="M103.906,18.576c1.413,0,2.506-0.825,2.506-2.122v-0.058c0-1.297-1.093-2.093-2.506-2.093
		c-1.414,0-2.502,0.796-2.502,2.093v0.058C101.404,17.751,102.492,18.576,103.906,18.576z"/>
	<path fill="#FFFFFF" d="M123.059,33.897v-8.161c0-3.624-1.971-5.865-5.361-5.865c-2.269,0-3.595,1.208-4.628,2.535v-0.177
		c0-1.236-1-2.239-2.238-2.239c-1.237,0-2.239,1.003-2.239,2.239v11.668c0,1.236,1.002,2.238,2.239,2.238
		c1.238,0,2.238-1.001,2.238-2.238V27.15c0-2.123,1.093-3.212,2.799-3.212c1.71,0,2.712,1.09,2.712,3.212v6.747
		c0,1.236,1.002,2.238,2.24,2.238C122.057,36.135,123.059,35.134,123.059,33.897z"/>
	<path fill="#FFFFFF" d="M134.432,34.28c0,0.943,0.855,1.855,2.153,1.855c1.208,0,2.179-0.941,2.179-2.15v-7.188
		c0-2.121-0.532-3.861-1.708-5.04c-1.121-1.119-2.887-1.768-5.334-1.768c-2.091,0-3.623,0.295-5.036,0.825
		c-0.707,0.264-1.209,0.942-1.209,1.737c0,1.032,0.822,1.827,1.854,1.827c0.207,0,0.382-0.028,0.649-0.117
		c0.854-0.267,1.856-0.441,3.094-0.441c2.24,0,3.388,1.031,3.388,2.887v0.265c-1.118-0.383-2.268-0.648-3.86-0.648
		c-3.743,0-6.365,1.591-6.365,5.038v0.059c0,3.124,2.449,4.833,5.424,4.833c2.18,0,3.684-0.795,4.771-2.004V34.28z M131.017,33.161
		c-1.446,0-2.446-0.707-2.446-1.915v-0.059c0-1.415,1.181-2.18,3.095-2.18c1.091,0,2.091,0.235,2.856,0.589v0.796
		C134.521,32.011,133.106,33.161,131.017,33.161z"/>
	<path fill="#FFFFFF" d="M102.928,48.051H98.85v-2.658h3.603c0.125,0,0.225-0.104,0.225-0.227c0-0.122-0.1-0.228-0.225-0.228H98.85
		v-2.6h4.03c0.124,0,0.225-0.104,0.225-0.226c0-0.123-0.101-0.227-0.225-0.227h-4.276c-0.131,0-0.246,0.113-0.246,0.246v6.127
		c0,0.133,0.115,0.247,0.246,0.247h4.324c0.12,0,0.226-0.105,0.226-0.228C103.153,48.154,103.048,48.051,102.928,48.051z"/>
	<path fill="#FFFFFF" d="M110.312,41.857h-0.049c-0.103,0-0.185,0.056-0.245,0.141l-2.581,3.802l-2.58-3.802
		c-0.065-0.085-0.14-0.141-0.246-0.141h-0.05c-0.13,0-0.244,0.113-0.244,0.246v6.203c0,0.133,0.105,0.237,0.235,0.237
		c0.132,0,0.239-0.104,0.239-0.237v-5.55l2.43,3.536c0.058,0.086,0.122,0.124,0.21,0.124c0.083,0,0.146-0.037,0.206-0.124
		l2.429-3.536v5.54c0,0.133,0.115,0.247,0.246,0.247c0.134,0,0.245-0.114,0.245-0.247v-6.192
		C110.557,41.97,110.445,41.857,110.312,41.857z"/>
	<path fill="#FFFFFF" d="M117.813,45.677c1.116-0.151,1.938-0.783,1.938-1.892v-0.019c0-0.472-0.19-0.917-0.5-1.229
		c-0.397-0.398-1.049-0.653-1.862-0.653h-2.535c-0.133,0-0.244,0.113-0.244,0.246v6.164c0,0.133,0.111,0.247,0.244,0.247
		c0.132,0,0.246-0.114,0.246-0.247v-2.532h2.165l2.035,2.647c0.056,0.075,0.12,0.132,0.216,0.132c0.13,0,0.255-0.124,0.255-0.254
		c0-0.058-0.028-0.114-0.075-0.171L117.813,45.677z M115.1,45.319v-2.98h2.26c1.201,0,1.898,0.558,1.898,1.447v0.02
		c0,0.954-0.817,1.514-1.926,1.514H115.1z"/>
	<path fill="#FFFFFF" d="M125.634,48.051h-4.073v-2.658h3.604c0.123,0,0.224-0.104,0.224-0.227c0-0.122-0.101-0.228-0.224-0.228
		h-3.604v-2.6h4.025c0.125,0,0.23-0.104,0.23-0.226c0-0.123-0.105-0.227-0.23-0.227h-4.273c-0.13,0-0.244,0.113-0.244,0.246v6.127
		c0,0.133,0.114,0.247,0.244,0.247h4.321c0.126,0,0.227-0.105,0.227-0.228C125.86,48.154,125.76,48.051,125.634,48.051z"/>
	<path fill="#FFFFFF" d="M129.232,41.885h-1.961c-0.132,0-0.246,0.113-0.246,0.246v6.127c0,0.133,0.114,0.247,0.246,0.247h1.961
		c2.08,0,3.516-1.447,3.516-3.311v-0.019C132.748,43.313,131.313,41.885,129.232,41.885z M132.236,45.213
		c0,1.581-1.162,2.838-3.004,2.838h-1.713v-5.712h1.713c1.842,0,3.004,1.287,3.004,2.855V45.213z"/>
	<path fill="#FFFFFF" d="M138.615,48.051h-4.077v-2.658h3.601c0.125,0,0.226-0.104,0.226-0.227c0-0.122-0.101-0.228-0.226-0.228
		h-3.601v-2.6h4.025c0.123,0,0.229-0.104,0.229-0.226c0-0.123-0.106-0.227-0.229-0.227h-4.275c-0.128,0-0.243,0.113-0.243,0.246
		v6.127c0,0.133,0.115,0.247,0.243,0.247h4.327c0.121,0,0.224-0.105,0.224-0.228C138.839,48.154,138.736,48.051,138.615,48.051z"/>
	<path fill="#FFFFFF" d="M59.36-0.7c0-4.672-3.784-8.46-8.459-8.46c-4.246,0-7.771,3.123-8.367,7.199
		c-0.253,1.719,0.025,2.678-0.081,3.696c-0.475,4.461-3.164,6.688-3.602,7.052c-4.368,3.627-10.463,2.11-11.656,1.765
		c-2.164-0.79-4.501-1.221-6.942-1.221C9.071,9.331,0,18.401,0,29.587c0,4.247,1.309,8.188,3.543,11.445l7.358-7.116
		c3.9-3.621,3.073-5.506,4.181-9.471c1.281-4.577,4.111-6.259,6.601-6.826c5.068-1.154,7.921,1.094,7.921,1.094l-7.067,4.026
		l0.784,4.699l3.512,2.51l7.104-3.721c0,0-1.326,10.339-9.805,10.455c-5.68,0.077-7.118,2.701-7.118,2.701L9.425,46.7
		c3.134,1.988,6.847,3.144,10.828,3.144c11.19,0,20.259-9.07,20.259-20.256c0-2.182-0.349-4.28-0.986-6.247
		c-0.374-1.486-0.963-4.229-0.761-6.247c0.204-2.025,0.845-4.337,2.445-6.269c2.298-2.437,4.591-2.988,6.487-3.173
		c0.359-0.036,2.625,0.11,3.204,0.11C55.574,7.762,59.36,3.973,59.36-0.7z"/>
	<path fill="#FFFFFF" d="M14.699,35.573c-0.529-0.549-1.405-0.561-1.957-0.028l-7.665,7.448c0.611,0.692,1.271,1.34,1.971,1.944
		l7.624-7.406C15.222,36.997,15.232,36.121,14.699,35.573z"/>
</g>
</svg>
