<?xml version="1.0" encoding="utf-8"?>
<!-- Generator: Adobe Illustrator 16.0.0, SVG Export Plug-In . SVG Version: 6.00 Build 0)  -->
<!DOCTYPE svg PUBLIC "-//W3C//DTD SVG 1.1//EN" "http://www.w3.org/Graphics/SVG/1.1/DTD/svg11.dtd">
<svg version="1.1" id="Layer_1" xmlns="http://www.w3.org/2000/svg" xmlns:xlink="http://www.w3.org/1999/xlink" x="0px" y="0px"
	 width="203.741px" height="137.246px" viewBox="0 0 203.741 137.246" enable-background="new 0 0 203.741 137.246"
	 xml:space="preserve">
<g>
	<path fill="#FFFFFF" d="M14.982,87.144C6.385,87.144,0,93.579,0,101.509v0.104c0,7.929,6.333,14.264,14.881,14.264
		c8.6,0,14.984-6.438,14.984-14.367v-0.104C29.865,93.477,23.53,87.144,14.982,87.144z M22.142,101.612
		c0,4.068-2.678,7.517-7.159,7.517c-4.324,0-7.259-3.552-7.259-7.62v-0.104c0-4.066,2.678-7.517,7.157-7.517
		c4.325,0,7.261,3.553,7.261,7.62V101.612z"/>
	<path fill="#FFFFFF" d="M56.386,87.35c-2.163,0-3.914,1.751-3.914,3.914v20.39c0,2.163,1.751,3.913,3.914,3.913
		c2.162,0,3.913-1.75,3.913-3.913v-20.39C60.299,89.101,58.548,87.35,56.386,87.35z"/>
	<path fill="#FFFFFF" d="M56.386,77.411c-2.472,0-4.378,1.392-4.378,3.657v0.103c0,2.266,1.906,3.707,4.378,3.707
		c2.471,0,4.376-1.441,4.376-3.707v-0.103C60.762,78.803,58.856,77.411,56.386,77.411z"/>
	<path fill="#FFFFFF" d="M44.336,83.898h0.669c1.751,0,3.192-1.492,3.192-3.242c0-1.751-1.339-2.936-2.678-3.143
		c-0.875-0.153-1.956-0.205-3.192-0.205c-2.78,0-4.891,0.721-6.333,2.162c-1.441,1.441-2.215,3.656-2.215,6.693v1.751h-0.309
		c-1.802,0-3.243,1.442-3.243,3.245c0,1.801,1.441,3.192,3.243,3.192h0.309v17.301c0,2.163,1.751,3.913,3.914,3.913
		s3.912-1.75,3.912-3.913V94.353h3.297c1.803,0,3.244-1.392,3.244-3.192c0-1.803-1.441-3.193-3.244-3.193h-3.399v-1.081
		C41.503,84.826,42.533,83.898,44.336,83.898z"/>
	<path fill="#FFFFFF" d="M88.517,109.852c0-1.855-1.441-3.347-3.294-3.347c-0.928,0-1.699,0.411-2.111,0.721
		c-1.494,1.183-3.089,1.903-5.149,1.903c-4.274,0-7.003-3.397-7.003-7.62v-0.104c0-4.066,2.781-7.517,6.694-7.517
		c2.06,0,3.501,0.67,4.892,1.75c0.464,0.361,1.235,0.773,2.266,0.773c1.956,0,3.553-1.545,3.553-3.502
		c0-1.338-0.721-2.266-1.235-2.678c-2.317-1.956-5.253-3.089-9.424-3.089c-8.444,0-14.468,6.487-14.468,14.365v0.104
		c0,7.878,6.075,14.264,14.364,14.264c4.532,0,7.468-1.442,9.784-3.554C88.055,111.704,88.517,110.88,88.517,109.852z"/>
	<path fill="#FFFFFF" d="M95.162,84.878c2.472,0,4.378-1.441,4.378-3.707v-0.103c0-2.266-1.906-3.657-4.378-3.657
		s-4.376,1.392-4.376,3.657v0.103C90.786,83.437,92.69,84.878,95.162,84.878z"/>
	<path fill="#FFFFFF" d="M99.075,111.653v-20.39c0-2.163-1.75-3.914-3.913-3.914s-3.914,1.751-3.914,3.914v20.39
		c0,2.163,1.751,3.913,3.914,3.913S99.075,113.816,99.075,111.653z"/>
	<path fill="#FFFFFF" d="M128.632,111.653V97.39c0-6.333-3.45-10.246-9.371-10.246c-3.965,0-6.282,2.11-8.084,4.429v-0.309
		c0-2.163-1.751-3.914-3.914-3.914c-2.162,0-3.913,1.751-3.913,3.914v20.39c0,2.163,1.751,3.913,3.913,3.913
		c2.163,0,3.914-1.75,3.914-3.913V99.86c0-3.707,1.905-5.61,4.892-5.61s4.736,1.903,4.736,5.61v11.793
		c0,2.163,1.752,3.913,3.914,3.913S128.632,113.816,128.632,111.653z"/>
	<path fill="#FFFFFF" d="M148.51,112.322c0,1.646,1.492,3.244,3.758,3.244c2.111,0,3.811-1.648,3.811-3.76V99.244
		c0-3.708-0.926-6.746-2.986-8.805c-1.957-1.957-5.046-3.09-9.319-3.09c-3.656,0-6.334,0.515-8.806,1.441
		c-1.235,0.463-2.11,1.648-2.11,3.037c0,1.803,1.442,3.193,3.243,3.193c0.361,0,0.671-0.051,1.133-0.207
		c1.494-0.462,3.245-0.771,5.408-0.771c3.912,0,5.92,1.801,5.92,5.047v0.463c-1.957-0.67-3.964-1.133-6.744-1.133
		c-6.541,0-11.122,2.78-11.122,8.806v0.103c0,5.458,4.272,8.444,9.474,8.444c3.811,0,6.436-1.392,8.342-3.501V112.322z
		 M142.537,110.365c-2.524,0-4.275-1.236-4.275-3.346v-0.104c0-2.471,2.061-3.811,5.408-3.811c1.904,0,3.655,0.412,4.993,1.031
		v1.388C148.663,108.357,146.191,110.365,142.537,110.365z"/>
	<path fill="#FFFFFF" d="M93.447,136.387h-7.123v-4.644h6.296c0.216,0,0.397-0.182,0.397-0.396c0-0.216-0.182-0.397-0.397-0.397
		h-6.296v-4.544h7.04c0.215,0,0.397-0.182,0.397-0.397c0-0.215-0.183-0.396-0.397-0.396h-7.47c-0.231,0-0.43,0.198-0.43,0.429
		v10.709c0,0.232,0.198,0.43,0.43,0.43h7.553c0.214,0,0.396-0.182,0.396-0.396C93.843,136.569,93.661,136.387,93.447,136.387z"/>
	<path fill="#FFFFFF" d="M106.356,125.563h-0.083c-0.183,0-0.331,0.1-0.43,0.248l-4.511,6.644l-4.512-6.644
		c-0.116-0.148-0.249-0.248-0.431-0.248h-0.082c-0.231,0-0.43,0.199-0.43,0.43v10.841c0,0.23,0.182,0.413,0.412,0.413
		c0.232,0,0.414-0.183,0.414-0.413v-9.699l4.247,6.181c0.1,0.148,0.215,0.214,0.363,0.214c0.149,0,0.265-0.065,0.363-0.214
		l4.247-6.181v9.684c0,0.229,0.199,0.429,0.431,0.429s0.429-0.199,0.429-0.429v-10.825
		C106.785,125.762,106.588,125.563,106.356,125.563z"/>
	<path fill="#FFFFFF" d="M119.466,132.239c1.948-0.264,3.388-1.372,3.388-3.304V128.9c0-0.826-0.331-1.602-0.877-2.147
		c-0.693-0.693-1.834-1.141-3.255-1.141h-4.429c-0.231,0-0.43,0.198-0.43,0.429v10.776c0,0.229,0.198,0.429,0.43,0.429
		s0.43-0.199,0.43-0.429v-4.431h3.783l3.555,4.628c0.099,0.133,0.213,0.231,0.38,0.231c0.231,0,0.445-0.215,0.445-0.445
		c0-0.1-0.05-0.2-0.132-0.298L119.466,132.239z M114.723,131.61v-5.204h3.949c2.099,0,3.322,0.975,3.322,2.529v0.031
		c0,1.669-1.438,2.644-3.372,2.644H114.723z"/>
	<path fill="#FFFFFF" d="M133.135,136.387h-7.122v-4.644h6.296c0.215,0,0.396-0.182,0.396-0.396c0-0.216-0.182-0.397-0.396-0.397
		h-6.296v-4.544h7.039c0.216,0,0.396-0.182,0.396-0.397c0-0.215-0.181-0.396-0.396-0.396h-7.47c-0.23,0-0.43,0.198-0.43,0.429
		v10.709c0,0.232,0.199,0.43,0.43,0.43h7.553c0.215,0,0.396-0.182,0.396-0.396C133.531,136.569,133.35,136.387,133.135,136.387z"/>
	<path fill="#FFFFFF" d="M139.416,125.612h-3.42c-0.231,0-0.43,0.198-0.43,0.429v10.709c0,0.232,0.198,0.43,0.43,0.43h3.42
		c3.637,0,6.148-2.528,6.148-5.782v-0.033C145.564,128.107,143.053,125.612,139.416,125.612z M144.672,131.429
		c0,2.76-2.031,4.958-5.256,4.958h-2.99v-9.98h2.99c3.225,0,5.256,2.248,5.256,4.991V131.429z"/>
	<path fill="#FFFFFF" d="M155.813,136.387h-7.122v-4.644h6.296c0.215,0,0.396-0.182,0.396-0.396c0-0.216-0.181-0.397-0.396-0.397
		h-6.296v-4.544h7.039c0.215,0,0.396-0.182,0.396-0.397c0-0.215-0.182-0.396-0.396-0.396h-7.469c-0.232,0-0.43,0.198-0.43,0.429
		v10.709c0,0.232,0.197,0.43,0.43,0.43h7.552c0.215,0,0.396-0.182,0.396-0.396C156.21,136.569,156.028,136.387,155.813,136.387z"/>
	<path fill="#FFFFFF" d="M191.16,74.331c-3.006-0.438-4.68,0.05-6.461-0.141c-7.795-0.83-11.688-5.53-12.323-6.296
		c-6.056-7.296-3.905-17.341-3.177-20.037c1.458-3.877,2.262-8.072,2.262-12.458C171.461,15.85,155.611,0,136.063,0
		c-19.551,0-35.399,15.85-35.399,35.399c0,7.423,2.29,14.312,6.194,20.001l12.857-12.436c6.816-6.328,5.367-9.623,7.307-16.551
		c2.236-8,7.18-10.938,11.534-11.93c8.858-2.016,13.843,1.914,13.843,1.914l-12.353,7.033l1.368,8.211l6.139,4.386l12.416-6.502
		c0,0-2.322,18.069-17.136,18.271c-9.923,0.134-12.439,4.723-12.439,4.723l-13.261,12.785c5.477,3.475,11.965,5.494,18.93,5.494
		c3.853,0,7.557-0.625,11.028-1.762c2.628-0.656,7.311-1.639,10.771-1.291c3.537,0.354,7.578,1.471,10.952,4.271
		c4.262,4.017,5.222,8.024,5.548,11.339c0.063,0.629-0.191,4.59-0.191,5.6c0,8.164,6.62,14.785,14.785,14.785
		c8.166,0,14.786-6.619,14.786-14.785C203.741,81.537,198.283,75.374,191.16,74.331z"/>
	<path fill="#FFFFFF" d="M112.978,62.224l13.326-12.944c0.957-0.931,0.979-2.462,0.048-3.418c-0.929-0.959-2.46-0.98-3.418-0.051
		l-13.4,13.015C110.603,60.035,111.754,61.17,112.978,62.224z"/>
</g>
</svg>
