<?xml version="1.0" encoding="UTF-8"?>
<!DOCTYPE svg PUBLIC "-//W3C//DTD SVG 1.1//EN" "http://www.w3.org/Graphics/SVG/1.1/DTD/svg11.dtd">
<!-- Creator: CorelDRAW X7 -->
<svg xmlns="http://www.w3.org/2000/svg" xml:space="preserve" width="24px" height="17px" version="1.1" style="shape-rendering:geometricPrecision; text-rendering:geometricPrecision; image-rendering:optimizeQuality; fill-rule:evenodd; clip-rule:evenodd"
viewBox="0 0 2316 1617"
 xmlns:xlink="http://www.w3.org/1999/xlink">
 <defs>
  <style type="text/css">
   <![CDATA[
    .fil0 {fill:white}
   ]]>
  </style>
 </defs>
 <g id="Camada_x0020_1">
  <metadata id="CorelCorpID_0Corel-Layer"/>
  <g id="_305589896">
   <path class="fil0" d="M89 0l2138 0c49,0 89,40 89,89l0 0c0,49 -40,90 -89,90l-2138 0c-49,0 -89,-41 -89,-90l0 0c0,-49 40,-89 89,-89z"/>
   <path class="fil0" d="M89 719l2138 0c49,0 89,41 89,90l0 0c0,49 -40,89 -89,89l-2138 0c-49,0 -89,-40 -89,-89l0 0c0,-49 40,-90 89,-90z"/>
   <path class="fil0" d="M89 1439l2138 0c49,0 89,40 89,89l0 0c0,49 -40,89 -89,89l-2138 0c-49,0 -89,-40 -89,-89l0 0c0,-49 40,-89 89,-89z"/>
  </g>
 </g>
</svg>
