<?xml version="1.0" encoding="UTF-8"?>
<!DOCTYPE svg PUBLIC "-//W3C//DTD SVG 1.1//EN" "http://www.w3.org/Graphics/SVG/1.1/DTD/svg11.dtd">
<!-- Creator: CorelDRAW X7 -->
<svg xmlns="http://www.w3.org/2000/svg" xml:space="preserve" width="24px" height="17px" version="1.1" style="shape-rendering:geometricPrecision; text-rendering:geometricPrecision; image-rendering:optimizeQuality; fill-rule:evenodd; clip-rule:evenodd"
viewBox="0 0 313 218"
 xmlns:xlink="http://www.w3.org/1999/xlink">
 <defs>
  <style type="text/css">
   <![CDATA[
    .fil0 {fill:#F1EFEE;fill-rule:nonzero}
   ]]>
  </style>
 </defs>
 <g id="Camada_x0020_1">
  <metadata id="CorelCorpID_0Corel-Layer"/>
  <path class="fil0" d="M313 12c0,7 -4,12 -10,12l-292 0c-6,0 -11,-5 -11,-12 0,-7 5,-12 11,-12l292 0c6,0 10,5 10,12z"/>
  <path class="fil0" d="M313 109c0,7 -4,12 -10,12l-292 0c-6,0 -11,-5 -11,-12 0,-6 5,-12 11,-12l292 0c6,0 10,6 10,12z"/>
  <path class="fil0" d="M313 206c0,7 -4,12 -10,12l-292 0c-6,0 -11,-5 -11,-12 0,-6 5,-12 11,-12l292 0c6,0 10,6 10,12z"/>
 </g>
</svg>
